<svg width="499" height="27" viewBox="0 0 499 27" fill="none" xmlns="http://www.w3.org/2000/svg">
<path d="M8.04327 2.81128L7.51921 7.30001H10.6864L11.2105 2.81128H14.3548L13.8308 7.30001H16.9524V10.0571H13.5346L12.9421 15.2749H16.2005V18.032H12.6232L12.0763 22.9308H8.93191L9.47876 18.032H6.31158L5.76472 22.9308H2.62033L3.16718 18.032H0V15.2749H3.46339L4.05581 10.0571H0.774706V7.30001H4.37481L4.89888 2.81128H8.04327ZM6.63057 15.2749H9.79775L10.3902 10.0571H7.223L6.63057 15.2749Z" fill="#FF0000"/>
<path d="M26.7944 19.7181C26.7944 19.946 26.8627 20.1055 26.9767 20.2194C27.0906 20.3333 27.2501 20.4017 27.4552 20.47C27.8197 20.5612 28.2299 20.6295 28.6628 20.6979C29.0957 20.7434 29.5514 20.8118 30.0071 20.8574C30.235 20.9029 30.3717 21.0169 30.3717 21.2219C30.3717 21.427 30.3717 21.6549 30.3489 21.9283C30.3489 22.2017 30.3033 22.4296 30.2578 22.6346C30.2578 22.7714 30.1894 22.8397 30.0983 22.8853C30.0071 22.9309 29.916 22.9536 29.8021 22.9536H20.0954C20.0954 22.9536 19.8904 22.9536 19.7992 22.8853C19.7081 22.8397 19.6625 22.7486 19.6397 22.6346C19.5942 22.4296 19.5714 22.2017 19.5486 21.9283C19.5258 21.6549 19.5258 21.427 19.5258 21.2219C19.5258 20.9941 19.6397 20.8574 19.8904 20.8574C20.3233 20.8574 20.8018 20.8118 21.3031 20.7434C21.8044 20.6751 22.2601 20.584 22.693 20.47C22.8981 20.4245 23.0576 20.3333 23.1715 20.2194C23.2854 20.1055 23.3538 19.946 23.3538 19.7181V6.77595C23.3538 6.47974 23.2171 6.41138 22.9664 6.52531C22.0322 6.98102 21.0524 7.34559 20.0499 7.59623C19.822 7.6418 19.6625 7.59623 19.5486 7.36838C19.4575 7.1861 19.3663 6.98103 19.298 6.75317C19.2296 6.52532 19.1612 6.29746 19.1385 6.09239C19.0929 5.86454 19.184 5.68225 19.3891 5.59111C20.0271 5.27211 20.6879 4.93033 21.3486 4.54298C22.0094 4.15562 22.6246 3.74549 23.1943 3.33535C23.331 3.24421 23.4905 3.15306 23.6272 3.08471C23.7639 3.01635 23.9462 2.948 24.1513 2.92521C24.4703 2.87964 24.8348 2.87964 25.245 2.87964C25.6551 2.87964 26.0197 2.87964 26.3387 2.92521C26.6804 2.97078 26.8627 3.15306 26.8627 3.47206V19.7181H26.7944Z" fill="#FF0000"/>
<path d="M53.1338 4.72521C53.6123 4.72521 54.0452 4.56571 54.4098 4.22393C54.5237 4.13279 54.6605 4.08722 54.8427 4.11C55.025 4.13279 55.2073 4.15557 55.3896 4.22393C55.7086 4.33786 56.0276 4.47457 56.3694 4.67964C56.7111 4.86192 57.0301 5.06699 57.3036 5.29485C57.4403 5.40878 57.5086 5.5227 57.4858 5.65942C57.4858 5.79613 57.4403 5.93284 57.3719 6.04677C56.2099 8.96331 54.7744 11.4925 53.111 13.6571C51.4249 15.8217 49.6476 17.599 47.7792 19.0345C47.6425 19.1484 47.4602 19.2396 47.278 19.3307C47.0957 19.4218 46.8906 19.4446 46.6855 19.3991C46.4577 19.3535 46.207 19.2851 45.9564 19.1484C45.7058 19.0117 45.4779 18.875 45.2273 18.6927C45.0906 18.6016 45.0222 18.4876 45.0678 18.3281C45.1133 18.1686 45.1817 18.0547 45.2956 17.9636C46.0703 17.2572 46.8222 16.4825 47.5742 15.6394C48.3261 14.7964 49.0552 13.9305 49.7388 12.9963C50.4224 12.0849 51.0376 11.1279 51.6072 10.1254C52.1768 9.12281 52.6325 8.12025 52.9971 7.07211H51.5161C51.1059 7.07211 50.7186 7.07211 50.3312 7.11769C49.9439 7.14047 49.6021 7.20882 49.2603 7.29997C48.4856 7.50503 47.7565 7.59618 47.0501 7.59618C46.8222 7.59618 46.64 7.57339 46.526 7.50503C46.4121 7.45946 46.2982 7.34553 46.1843 7.20882C45.9792 6.91261 45.7969 6.57083 45.6146 6.16069C45.4323 5.75055 45.3184 5.3632 45.2501 4.99864C45.2045 4.86192 45.2501 4.72521 45.3412 4.63407C45.4323 4.54293 45.569 4.49735 45.7058 4.54292C46.1615 4.63407 46.64 4.67964 47.164 4.70242C47.6881 4.72521 48.235 4.72521 48.8502 4.72521H53.0883H53.1338ZM60.015 4.63407C60.015 4.08722 59.8555 3.65429 59.5138 3.35808C59.2631 3.13022 59.0125 2.94794 58.7618 2.78844C58.5112 2.62894 58.2606 2.51502 58.0099 2.42388C57.7821 2.33273 57.6681 2.17323 57.7137 1.96816C57.7593 1.71752 57.8276 1.4441 57.9416 1.1251C58.0555 0.828893 58.1922 0.578253 58.3061 0.395969C58.4201 0.259257 58.5796 0.190901 58.8074 0.236472C59.6049 0.373185 60.3796 0.623824 61.1315 0.965606C61.8834 1.30739 62.567 1.69474 63.205 2.10488C63.5468 2.33273 63.7063 2.60616 63.6379 2.94794C63.5924 3.35808 63.524 3.791 63.4784 4.24671C63.4329 4.70242 63.4101 5.15813 63.4101 5.63663V10.4444H63.6607C63.9114 10.4444 64.162 10.4444 64.3671 10.376C64.5949 10.3304 64.8228 10.2621 65.0506 10.1937C65.5291 10.057 65.9393 9.96587 66.281 9.96587C66.5773 9.96587 66.8051 10.0798 66.9874 10.3304C67.238 10.6494 67.4431 10.9912 67.5798 11.4013C67.7165 11.8115 67.8077 12.1761 67.8305 12.5406C67.8305 12.6773 67.8077 12.814 67.7165 12.9052C67.6254 12.9963 67.4887 13.0191 67.3292 12.9963C66.9646 12.9508 66.6 12.9052 66.2127 12.8596C65.8253 12.8141 65.3924 12.8141 64.8911 12.8141H63.4101V23.3409C63.4101 23.7739 63.2278 24.1156 62.886 24.3891C62.567 24.6169 62.2252 24.822 61.8379 24.9815C61.4505 25.141 61.0404 25.2093 60.653 25.2093C60.2201 25.2093 59.9923 24.9815 59.9923 24.5486V4.63407H60.015Z" fill="#FF0000"/>
<path d="M86.6288 19.4215C87.3123 19.4215 88.0643 19.3304 88.8617 19.1253C89.5225 18.9658 90.2061 18.8747 90.9352 18.8747C91.2542 18.8747 91.5276 19.0114 91.7555 19.2848C91.9834 19.581 92.1884 19.9228 92.3251 20.3557C92.4619 20.7659 92.553 21.176 92.5986 21.5862C92.5986 21.9052 92.4391 22.0191 92.0745 21.9735C91.596 21.9052 91.0719 21.8596 90.5251 21.814C89.9554 21.7912 89.4086 21.7684 88.8845 21.7684H75.3044C74.8943 21.7684 74.5069 21.7684 74.1195 21.8368C73.7322 21.8824 73.3904 21.9507 73.0486 22.0419C72.2739 22.2241 71.5448 22.3381 70.8384 22.3381C70.6106 22.3381 70.4283 22.3153 70.3144 22.2469C70.2004 22.2014 70.0865 22.0874 69.9726 21.9507C69.7675 21.6545 69.5852 21.2899 69.403 20.857C69.2207 20.4241 69.1067 20.014 69.0384 19.6494C68.9928 19.5127 69.0384 19.376 69.1295 19.2848C69.2207 19.1937 69.3574 19.1481 69.4941 19.1937C70.3827 19.3532 71.4309 19.4443 72.6385 19.4443H86.606L86.6288 19.4215ZM87.0389 15.3657C85.9908 14.2264 84.9199 13.1783 83.8034 12.2669C82.6869 11.3555 81.5932 10.5124 80.4995 9.73771C79.4969 10.9909 78.426 12.1302 77.2639 13.1327C76.1019 14.1353 74.9626 14.9784 73.8233 15.6164C73.5955 15.7531 73.3904 15.8214 73.1626 15.867C72.9347 15.9126 72.7068 15.867 72.5018 15.7986C72.2511 15.7075 72.0233 15.5936 71.841 15.4796C71.6587 15.3657 71.4992 15.2518 71.3853 15.1379C71.2486 15.0012 71.1802 14.8189 71.2258 14.6366C71.2714 14.4543 71.3625 14.2948 71.5448 14.1809C72.2739 13.7024 73.0258 13.1555 73.7778 12.4948C74.5297 11.8568 75.2588 11.1504 75.9424 10.3985C76.626 9.64657 77.2867 8.87186 77.8792 8.05159C78.4716 7.2541 78.9956 6.4566 79.4286 5.70468C79.6108 5.38568 79.6108 5.15783 79.4513 4.97554C79.3146 4.81604 79.1324 4.65655 78.9501 4.51984C78.7678 4.38313 78.6083 4.2692 78.5171 4.22363C78.1754 3.99577 78.0614 3.72235 78.2209 3.40335C78.2893 3.26664 78.4032 3.06157 78.5855 2.81093C78.745 2.56029 78.8817 2.35522 78.9956 2.24129C79.0868 2.15015 79.1779 2.10457 79.2918 2.08179C79.4058 2.08179 79.5653 2.08179 79.7476 2.17293C80.021 2.26407 80.3172 2.378 80.6134 2.5375C80.9324 2.67421 81.2286 2.83372 81.5476 3.016C81.8666 3.19828 82.14 3.38056 82.4135 3.56285C82.6869 3.74513 82.9147 3.9502 83.1198 4.13248C83.3249 4.31477 83.416 4.51983 83.416 4.77047C83.416 4.99833 83.3477 5.22619 83.2565 5.43125C83.0742 5.81861 82.892 6.18318 82.6869 6.57053C82.4818 6.95788 82.2767 7.32245 82.0261 7.68702C83.1654 8.3478 84.4186 9.14529 85.7401 10.1251C87.0617 11.0821 88.3605 12.153 89.6137 13.315C89.796 13.4745 89.8643 13.6568 89.796 13.8391C89.7504 14.0214 89.6592 14.1809 89.5681 14.3404C89.4542 14.4999 89.2719 14.7049 89.0212 14.9784C88.7706 15.229 88.5428 15.4341 88.3377 15.548C88.0187 15.7531 87.768 15.8442 87.5858 15.7986C87.4035 15.7759 87.1984 15.6619 86.9933 15.4569L87.0389 15.3657Z" fill="#FF0000"/>
<path d="M95.1741 4.24671C95.6298 4.29228 96.1083 4.31507 96.6324 4.33786C97.1337 4.33786 97.6349 4.36064 98.1362 4.36064H101.987C102.42 4.36064 102.83 4.20115 103.195 3.90493C103.331 3.81379 103.468 3.76821 103.628 3.791C103.787 3.791 103.969 3.83657 104.152 3.88214C104.471 3.97329 104.79 4.08722 105.109 4.22393C105.428 4.36064 105.747 4.52014 106.02 4.70242C106.225 4.83914 106.316 5.06699 106.316 5.40878C106.271 5.91006 106.225 6.43412 106.157 6.9354C106.066 7.39111 105.974 7.93796 105.906 8.55316C105.815 9.16837 105.747 9.69244 105.655 10.1481C105.883 10.1937 106.066 10.3304 106.202 10.5355C106.339 10.7634 106.476 11.014 106.567 11.333C106.658 11.652 106.704 11.9482 106.726 12.2216C106.772 12.5862 106.59 12.7457 106.179 12.7229C105.769 12.6773 105.314 12.6546 104.835 12.6318C104.357 12.609 103.878 12.5862 103.422 12.5862H99.0932C99.0476 12.8596 99.0476 13.0875 99.0476 13.3153V16.2319C99.0476 16.5509 99.1844 16.6876 99.4806 16.6876C99.8679 16.6876 100.392 16.6648 101.076 16.5964C101.759 16.5509 102.488 16.4597 103.286 16.3686C104.083 16.2774 104.926 16.1635 105.792 16.0268C106.658 15.8901 107.501 15.7534 108.276 15.6167C108.412 15.5711 108.526 15.6167 108.595 15.6622C108.663 15.7306 108.709 15.8217 108.709 15.9357C108.709 16.1407 108.663 16.3686 108.595 16.642C108.526 16.9154 108.435 17.1433 108.344 17.3484C108.23 17.5534 108.071 17.6901 107.82 17.7585C107.342 17.8952 106.749 18.0547 105.997 18.2142C105.268 18.3737 104.493 18.5332 103.696 18.6699C102.898 18.8294 102.124 18.9661 101.349 19.0573C100.597 19.1712 99.9591 19.2396 99.4122 19.3079C99.1844 19.3079 98.9565 19.3079 98.7059 19.3079C98.4552 19.3079 98.2274 19.2396 97.9995 19.1484C97.5666 19.0117 97.1564 18.7838 96.7919 18.4876C96.4273 18.1914 96.1539 17.9408 95.9944 17.7129C95.8805 17.5762 95.8121 17.4167 95.7665 17.2344C95.721 17.0521 95.6982 16.8926 95.6982 16.7331V13.4748C95.6982 13.0647 95.5842 12.7685 95.3336 12.609C95.1969 12.4951 95.0374 12.4039 94.8779 12.3583C94.7184 12.29 94.5361 12.2216 94.3083 12.1533C94.1488 12.1077 94.0576 11.971 94.0576 11.7887C94.0576 11.6292 94.0804 11.3786 94.1488 11.0596C94.2171 10.7406 94.2627 10.5127 94.331 10.3988C94.3994 10.2621 94.5133 10.1709 94.65 10.1709C94.969 10.1709 95.3564 10.1709 95.8121 10.1709C96.2678 10.1709 96.7463 10.2393 97.2248 10.3304L102.693 10.2393V6.68476H99.9363C99.6401 6.68476 99.3439 6.70754 99.0021 6.7759C98.6831 6.84426 98.3641 6.88983 98.0906 6.95819C97.7944 7.00376 97.4982 7.07211 97.202 7.11769C96.9058 7.16326 96.5868 7.18604 96.2906 7.18604C95.9716 7.18604 95.6982 7.04933 95.4703 6.7759C95.2425 6.47969 95.0374 6.1607 94.9007 5.77334C94.764 5.40877 94.6728 5.02142 94.6273 4.61128C94.6273 4.31507 94.7868 4.20114 95.1513 4.22393L95.1741 4.24671ZM109.643 4.63407C109.643 4.08722 109.483 3.65429 109.142 3.35808C108.891 3.13022 108.64 2.94794 108.39 2.78844C108.139 2.62894 107.888 2.51502 107.638 2.42388C107.41 2.33273 107.296 2.17323 107.342 1.96816C107.387 1.71752 107.455 1.4441 107.569 1.1251C107.683 0.828893 107.82 0.578253 107.934 0.395969C108.048 0.259257 108.207 0.190901 108.435 0.236472C109.233 0.373185 110.007 0.623824 110.759 0.965606C111.511 1.30739 112.195 1.69474 112.833 2.10488C113.175 2.33273 113.334 2.60616 113.266 2.94794C113.22 3.35808 113.152 3.791 113.106 4.24671C113.061 4.70242 113.038 5.15813 113.038 5.63663V9.62408H113.289C113.539 9.62408 113.79 9.62409 113.995 9.55573C114.223 9.51016 114.451 9.4418 114.678 9.37344C115.157 9.23673 115.567 9.14559 115.909 9.14559C116.205 9.14559 116.433 9.25952 116.615 9.51016C116.866 9.82915 117.071 10.1709 117.208 10.5811C117.344 10.9912 117.436 11.3558 117.458 11.7204C117.458 11.8571 117.436 11.9938 117.344 12.0849C117.253 12.1761 117.117 12.1988 116.957 12.1761C116.592 12.1305 116.228 12.0849 115.841 12.0393C115.453 11.9938 115.02 11.9938 114.519 11.9938H113.038V23.3409C113.038 23.7739 112.856 24.1156 112.514 24.3891C112.195 24.6169 111.853 24.822 111.466 24.9815C111.078 25.141 110.668 25.2093 110.281 25.2093C109.848 25.2093 109.62 24.9815 109.62 24.5486V4.63407H109.643Z" fill="#FF0000"/>
<path d="M132.36 11.0595C132.36 11.9709 132.2 12.814 131.881 13.5887C131.562 14.3634 131.107 15.047 130.514 15.6166C129.922 16.1862 129.215 16.6419 128.395 16.9837C127.575 17.3255 126.641 17.485 125.615 17.485C124.59 17.485 123.679 17.3255 122.835 16.9837C121.992 16.6419 121.286 16.1862 120.716 15.6166C120.124 15.047 119.691 14.3634 119.372 13.5887C119.053 12.814 118.894 11.9709 118.894 11.0595C118.894 10.1481 119.053 9.3278 119.372 8.53031C119.691 7.73281 120.147 7.04925 120.716 6.47961C121.286 5.90997 122.015 5.45427 122.835 5.11249C123.656 4.7707 124.59 4.6112 125.615 4.6112C126.641 4.6112 127.552 4.7707 128.395 5.11249C129.238 5.45427 129.922 5.90997 130.514 6.47961C131.107 7.04925 131.562 7.73281 131.881 8.53031C132.2 9.3278 132.36 10.1709 132.36 11.0595ZM128.942 11.0595C128.942 10.5126 128.874 9.98857 128.714 9.48729C128.577 8.98601 128.35 8.55309 128.053 8.18852C127.757 7.82395 127.415 7.52774 127.005 7.29989C126.595 7.07203 126.139 6.98089 125.615 6.98089C125.091 6.98089 124.613 7.09482 124.225 7.29989C123.838 7.50496 123.473 7.80117 123.177 8.18852C122.881 8.55309 122.653 8.98601 122.516 9.48729C122.38 9.98857 122.289 10.5126 122.289 11.0595C122.289 11.6063 122.357 12.1304 122.516 12.6317C122.653 13.133 122.881 13.5659 123.177 13.9305C123.473 14.295 123.815 14.5912 124.225 14.7963C124.635 15.0242 125.091 15.1153 125.615 15.1153C126.139 15.1153 126.595 15.0014 127.005 14.7963C127.415 14.5685 127.757 14.295 128.053 13.9305C128.35 13.5659 128.577 13.133 128.714 12.6317C128.851 12.1304 128.942 11.6063 128.942 11.0595ZM135.254 4.65677C135.254 4.10992 135.094 3.677 134.752 3.38079C134.502 3.15294 134.251 2.97065 134 2.81116C133.75 2.65166 133.499 2.53773 133.248 2.44659C133.021 2.35545 132.907 2.19595 132.952 1.99088C132.998 1.74024 133.066 1.46681 133.18 1.14781C133.294 0.851598 133.431 0.600958 133.545 0.418675C133.659 0.281962 133.818 0.213606 134.046 0.259177C134.843 0.39589 135.618 0.646529 136.37 0.988311C137.122 1.33009 137.805 1.71745 138.443 2.12759C138.785 2.35544 138.945 2.62887 138.876 2.97065C138.831 3.38079 138.762 3.81372 138.717 4.26943C138.671 4.72513 138.649 5.18085 138.649 5.65934V23.3409C138.649 23.7738 138.466 24.1156 138.124 24.389C137.805 24.6168 137.464 24.8219 137.076 24.9814C136.689 25.1409 136.279 25.2093 135.892 25.2093C135.459 25.2093 135.231 24.9814 135.231 24.5485V4.63399L135.254 4.65677Z" fill="#FF0000"/>
<path d="M155.602 9.69254C155.146 9.64697 154.667 9.62419 154.143 9.6014C153.642 9.6014 153.141 9.57861 152.64 9.57861H148.766V11.5837C148.766 11.9027 148.903 12.0394 149.199 12.0394C149.586 12.0394 150.133 12.0167 150.862 11.9483C151.591 11.9027 152.366 11.8116 153.232 11.7205C154.098 11.6293 154.964 11.5154 155.875 11.3787C156.787 11.242 157.63 11.1052 158.427 10.9685C158.564 10.923 158.678 10.9685 158.746 11.0141C158.814 11.0825 158.86 11.1736 158.86 11.2875C158.86 11.4926 158.814 11.7204 158.746 11.9939C158.678 12.2673 158.587 12.4952 158.495 12.7002C158.382 12.9053 158.222 13.042 157.971 13.1104C157.493 13.2471 156.878 13.4066 156.08 13.5661C155.305 13.7256 154.485 13.8851 153.642 14.0218C152.799 14.1813 151.979 14.318 151.159 14.4091C150.361 14.5231 149.7 14.5914 149.153 14.6598C148.926 14.6598 148.698 14.6598 148.447 14.6598C148.196 14.6598 147.969 14.5914 147.741 14.5003C147.308 14.3636 146.898 14.1357 146.533 13.8395C146.169 13.5433 145.895 13.2927 145.736 13.0648C145.622 12.9281 145.553 12.7686 145.508 12.5863C145.462 12.404 145.439 12.2445 145.439 12.085V5.8418C145.439 5.43166 145.325 5.13544 145.075 4.97595C144.938 4.86202 144.756 4.77088 144.551 4.72531C144.346 4.65696 144.141 4.5886 143.913 4.52024C143.753 4.47467 143.662 4.33796 143.662 4.15568C143.662 3.99618 143.685 3.74553 143.753 3.42653C143.822 3.10754 143.867 2.87969 143.936 2.76576C144.004 2.62905 144.118 2.5379 144.255 2.5379C144.642 2.5379 145.143 2.5379 145.781 2.58347C146.419 2.62904 147.034 2.69741 147.604 2.81133H151.022C151.318 2.81133 151.614 2.78855 151.956 2.72019C152.275 2.65183 152.594 2.60626 152.867 2.5379C153.164 2.49233 153.46 2.42397 153.756 2.3784C154.052 2.33283 154.371 2.31005 154.667 2.31005C154.986 2.31005 155.26 2.44676 155.488 2.72019C155.716 3.0164 155.921 3.33539 156.057 3.72275C156.194 4.1101 156.285 4.47467 156.331 4.88481C156.331 5.18102 156.171 5.29495 155.807 5.27216C155.351 5.22659 154.873 5.2038 154.348 5.18102C153.847 5.18102 153.346 5.15823 152.845 5.15823H148.72C148.72 5.3633 148.698 5.54558 148.698 5.75065V7.20892H150.748C151.045 7.20892 151.341 7.18614 151.683 7.11779C152.002 7.04943 152.321 7.00385 152.594 6.9355C152.89 6.88993 153.186 6.82157 153.483 6.776C153.779 6.73043 154.098 6.70765 154.394 6.70765C154.713 6.70765 154.986 6.84436 155.214 7.11779C155.442 7.414 155.647 7.73299 155.784 8.12034C155.921 8.48491 156.012 8.87227 156.057 9.28241C156.057 9.57862 155.898 9.69254 155.533 9.66976L155.602 9.69254ZM163.349 20.6979C163.349 21.4498 163.189 22.1562 162.893 22.817C162.574 23.455 162.141 24.0246 161.594 24.5031C161.047 24.9816 160.364 25.3462 159.589 25.6196C158.814 25.893 157.971 26.0069 157.037 26.0069C156.103 26.0069 155.237 25.8702 154.462 25.6196C153.688 25.3462 153.027 24.9816 152.457 24.5031C151.91 24.0246 151.478 23.4778 151.159 22.817C150.84 22.179 150.703 21.4726 150.703 20.6979C150.703 19.9232 150.862 19.2397 151.159 18.5789C151.478 17.9409 151.91 17.3712 152.457 16.8927C153.004 16.4143 153.688 16.0497 154.462 15.799C155.237 15.5256 156.103 15.4117 157.037 15.4117C157.971 15.4117 158.814 15.5484 159.589 15.799C160.364 16.0725 161.025 16.437 161.594 16.8927C162.141 17.3712 162.574 17.9181 162.893 18.5789C163.212 19.2397 163.349 19.9232 163.349 20.6979ZM159.908 20.6979C159.908 19.8093 159.635 19.1029 159.111 18.5789C158.587 18.032 157.88 17.7586 157.014 17.7586C156.149 17.7586 155.442 18.032 154.918 18.5789C154.394 19.1257 154.121 19.8321 154.121 20.6979C154.121 21.5638 154.394 22.2929 154.918 22.817C155.442 23.3638 156.149 23.6373 157.014 23.6373C157.88 23.6373 158.587 23.3638 159.111 22.817C159.635 22.2701 159.908 21.5638 159.908 20.6979ZM163.645 13.5661C163.645 13.999 163.463 14.3408 163.121 14.6142C162.802 14.8421 162.46 15.0471 162.073 15.2066C161.685 15.3661 161.275 15.4345 160.888 15.4345C160.455 15.4345 160.227 15.2066 160.227 14.7737V4.49745C160.227 3.90503 160.045 3.47211 159.703 3.1759C159.452 2.97083 159.202 2.81133 158.951 2.67462C158.701 2.5379 158.45 2.44676 158.199 2.35562C157.971 2.26448 157.88 2.12777 157.903 1.94548C157.949 1.69484 158.017 1.39863 158.154 1.10242C158.29 0.783426 158.404 0.555563 158.541 0.37328C158.632 0.236567 158.769 0.191001 158.974 0.236572C159.749 0.373285 160.546 0.601142 161.321 0.897353C162.096 1.19356 162.825 1.55813 163.463 1.96826C163.804 2.19612 163.964 2.46955 163.896 2.81133C163.85 3.22147 163.782 3.67718 163.736 4.1101C163.691 4.56581 163.645 5.02152 163.645 5.50001V13.5661Z" fill="#FF0000"/>
<path d="M181.579 11.0595C181.579 11.9709 181.419 12.814 181.1 13.5887C180.781 14.3634 180.325 15.047 179.733 15.6166C179.14 16.1862 178.434 16.6419 177.614 16.9837C176.794 17.3255 175.859 17.485 174.834 17.485C173.809 17.485 172.897 17.3255 172.054 16.9837C171.211 16.6419 170.505 16.1862 169.935 15.6166C169.343 15.047 168.91 14.3634 168.591 13.5887C168.272 12.814 168.112 11.9709 168.112 11.0595C168.112 10.1481 168.272 9.3278 168.591 8.53031C168.91 7.73281 169.366 7.04925 169.935 6.47961C170.505 5.90997 171.234 5.45427 172.054 5.11249C172.874 4.7707 173.809 4.6112 174.834 4.6112C175.859 4.6112 176.771 4.7707 177.614 5.11249C178.457 5.45427 179.14 5.90997 179.733 6.47961C180.325 7.04925 180.781 7.73281 181.1 8.53031C181.419 9.3278 181.579 10.1709 181.579 11.0595ZM178.161 11.0595C178.161 10.5126 178.092 9.98857 177.933 9.48729C177.796 8.98601 177.568 8.55309 177.272 8.18852C176.976 7.82395 176.634 7.52774 176.224 7.29989C175.814 7.07203 175.358 6.98089 174.834 6.98089C174.31 6.98089 173.831 7.09482 173.444 7.29989C173.057 7.50496 172.692 7.80117 172.396 8.18852C172.1 8.55309 171.872 8.98601 171.735 9.48729C171.598 9.98857 171.507 10.5126 171.507 11.0595C171.507 11.6063 171.576 12.1304 171.735 12.6317C171.872 13.133 172.1 13.5659 172.396 13.9305C172.692 14.295 173.034 14.5912 173.444 14.7963C173.854 15.0242 174.31 15.1153 174.834 15.1153C175.358 15.1153 175.814 15.0014 176.224 14.7963C176.634 14.5685 176.976 14.295 177.272 13.9305C177.568 13.5659 177.796 13.133 177.933 12.6317C178.07 12.1304 178.161 11.6063 178.161 11.0595ZM184.472 4.65677C184.472 4.10992 184.313 3.677 183.971 3.38079C183.72 3.15294 183.47 2.97065 183.219 2.81116C182.968 2.65166 182.718 2.53773 182.467 2.44659C182.239 2.35545 182.125 2.19595 182.171 1.99088C182.217 1.74024 182.285 1.46681 182.399 1.14781C182.513 0.851598 182.649 0.600958 182.763 0.418675C182.877 0.281962 183.037 0.213606 183.265 0.259177C184.062 0.39589 184.837 0.646529 185.589 0.988311C186.341 1.33009 187.024 1.71745 187.662 2.12759C188.004 2.35544 188.164 2.62887 188.095 2.97065C188.05 3.38079 187.981 3.81372 187.936 4.26943C187.89 4.72513 187.867 5.18085 187.867 5.65934V23.3409C187.867 23.7738 187.685 24.1156 187.343 24.389C187.024 24.6168 186.682 24.8219 186.295 24.9814C185.908 25.1409 185.498 25.2093 185.11 25.2093C184.677 25.2093 184.449 24.9814 184.449 24.5485V4.63399L184.472 4.65677Z" fill="#FF0000"/>
<path d="M210.88 4.1556C210.72 4.58852 210.515 5.04423 210.287 5.47715C210.059 5.93286 209.809 6.36579 209.535 6.82149C210.31 7.41392 211.153 8.09748 212.042 8.82662C212.93 9.55575 213.751 10.3305 214.525 11.1279C214.662 11.2647 214.73 11.4469 214.73 11.6292C214.73 11.8115 214.662 11.971 214.525 12.1305C214.343 12.3584 214.115 12.5862 213.819 12.8596C213.523 13.1331 213.295 13.3381 213.067 13.4521C212.885 13.5432 212.703 13.5888 212.52 13.566C212.338 13.5432 212.178 13.4748 212.019 13.3154C211.7 12.9508 211.381 12.5634 211.016 12.1761C210.652 11.7659 210.287 11.3786 209.9 11.014C209.513 10.6495 209.171 10.2849 208.829 9.96589C208.487 9.6469 208.191 9.37346 207.918 9.1684C207.234 10.0342 206.528 10.8545 205.799 11.6064C205.069 12.3584 204.363 12.9964 203.725 13.5432C203.52 13.7027 203.292 13.8394 203.064 13.9306C202.814 14.0217 202.586 14.0445 202.335 14.0217C202.084 13.9761 201.857 13.9306 201.674 13.8622C201.492 13.7938 201.333 13.7255 201.173 13.6571C200.968 13.566 200.877 13.4293 200.854 13.2242C200.831 13.0191 200.922 12.8596 201.059 12.7002C201.652 12.1077 202.267 11.4925 202.882 10.8317C203.497 10.171 204.09 9.51018 204.636 8.82662C205.183 8.14305 205.685 7.45949 206.118 6.79871C206.573 6.13793 206.915 5.49993 207.188 4.9303C207.28 4.72523 207.28 4.56573 207.211 4.42902C207.143 4.29231 207.029 4.17838 206.892 4.08724C206.71 3.95052 206.528 3.8366 206.323 3.74546C206.118 3.65432 205.958 3.56317 205.799 3.49482C205.571 3.38089 205.48 3.22139 205.525 2.97075C205.571 2.78847 205.639 2.56061 205.753 2.2644C205.867 1.96819 205.981 1.76312 206.072 1.67198C206.14 1.58084 206.209 1.51248 206.277 1.46691C206.345 1.42134 206.437 1.42134 206.573 1.46691C207.166 1.60362 207.826 1.80869 208.51 2.05933C209.194 2.30997 209.786 2.5834 210.264 2.87961C210.538 3.01632 210.72 3.22139 210.834 3.44925C210.925 3.6771 210.948 3.92774 210.834 4.1556H210.88ZM216.462 15.0698C216.895 15.0698 217.305 14.9103 217.67 14.6141C217.806 14.523 217.943 14.4774 218.103 14.5002C218.262 14.5002 218.444 14.5458 218.627 14.5913C218.946 14.6825 219.265 14.7964 219.584 14.9331C219.903 15.0698 220.222 15.2293 220.495 15.4116C220.7 15.5483 220.791 15.7762 220.791 16.118C220.791 16.5737 220.746 17.0294 220.655 17.5079C220.563 17.9864 220.45 18.4193 220.29 18.8522C220.564 18.8522 220.769 19.0117 220.928 19.2624C221.201 19.6725 221.361 20.151 221.384 20.7206C221.384 20.8801 221.361 20.9941 221.224 21.0852C221.11 21.1536 220.974 21.1763 220.791 21.1763C220.381 21.1308 219.971 21.1308 219.584 21.1308H210.037V22.6574C210.037 22.8853 210.082 23.022 210.173 23.0903C210.264 23.1587 210.401 23.2042 210.606 23.2042H216.189C216.872 23.2042 217.624 23.1131 218.422 22.908C219.082 22.7485 219.766 22.6574 220.495 22.6574C220.814 22.6574 221.088 22.7941 221.315 23.0675C221.543 23.3638 221.748 23.6827 221.885 24.0245C222.022 24.3663 222.113 24.7537 222.158 25.141C222.158 25.4372 221.999 25.5512 221.634 25.5284C221.156 25.4828 220.632 25.4372 220.085 25.4144C219.538 25.3917 218.969 25.3917 218.444 25.3917H209.535C209.307 25.3917 209.057 25.3917 208.806 25.3461C208.556 25.3233 208.35 25.2777 208.168 25.2322C207.918 25.141 207.667 25.0043 207.439 24.8448C207.211 24.6853 207.029 24.503 206.915 24.2979C206.824 24.1612 206.756 24.0017 206.687 23.8422C206.619 23.6827 206.596 23.5005 206.596 23.2954V21.9055C206.596 21.746 206.596 21.6093 206.573 21.4726C206.573 21.3586 206.482 21.2447 206.345 21.1308C206.209 21.0168 206.072 20.9257 205.912 20.8573C205.753 20.789 205.593 20.7206 205.411 20.6978C205.183 20.6067 205.047 20.4928 205.047 20.3789C205.047 20.1738 205.047 19.9687 205.069 19.7181C205.115 19.4902 205.161 19.2624 205.206 19.0573C205.252 18.875 205.411 18.7839 205.639 18.7611C206.3 18.7155 206.961 18.7155 207.667 18.7611C208.35 18.7839 209.057 18.875 209.763 18.9889L209.945 19.0801H217.168V17.2572H211.29C210.925 17.2572 210.583 17.28 210.242 17.3256C209.9 17.3712 209.581 17.4395 209.262 17.5307C208.897 17.6218 208.533 17.6902 208.145 17.7129C207.781 17.7585 207.416 17.7585 207.075 17.7585C206.847 17.7585 206.664 17.7357 206.55 17.6674C206.437 17.599 206.323 17.5079 206.231 17.3712C206.026 17.075 205.844 16.756 205.685 16.4142C205.525 16.0724 205.411 15.7078 205.366 15.3433C205.32 15.2066 205.366 15.0698 205.457 14.9787C205.548 14.8876 205.685 14.842 205.821 14.8876C206.71 15.0471 207.758 15.1382 208.966 15.1382H216.394L216.462 15.0698ZM220.791 11.8799C220.791 12.3128 220.609 12.6546 220.267 12.928C219.948 13.1559 219.607 13.3609 219.219 13.5204C218.832 13.6799 218.422 13.7483 218.034 13.7483C217.601 13.7483 217.374 13.5204 217.374 13.0875V4.52017C217.374 3.92774 217.191 3.49482 216.849 3.1986C216.599 2.99354 216.348 2.83403 216.098 2.69732C215.847 2.56061 215.596 2.46947 215.346 2.37833C215.118 2.28718 215.027 2.15047 215.049 1.96819C215.095 1.71755 215.163 1.42134 215.3 1.12513C215.437 0.80613 215.551 0.578276 215.687 0.395992C215.779 0.259279 215.915 0.213705 216.12 0.259276C216.895 0.395989 217.693 0.623846 218.467 0.920057C219.242 1.21627 219.971 1.58084 220.609 1.99098C220.951 2.21883 221.11 2.49225 221.042 2.83404C220.996 3.24418 220.928 3.6771 220.883 4.13281C220.837 4.58852 220.791 5.04423 220.791 5.52272V11.8571V11.8799Z" fill="#FF0000"/>
<path d="M230.702 4.95309C231.021 4.95309 231.34 4.9303 231.705 4.88473C232.069 4.83916 232.411 4.7708 232.707 4.70245C233.323 4.56573 233.938 4.49738 234.507 4.49738C234.826 4.49738 235.1 4.63409 235.328 4.90751C235.556 5.20373 235.761 5.52272 235.897 5.91007C236.034 6.27464 236.125 6.662 236.171 7.07214C236.171 7.36835 236.011 7.48227 235.647 7.45949C235.191 7.41391 234.69 7.36835 234.166 7.36835C233.642 7.36835 233.117 7.36835 232.616 7.36835C232.479 7.96077 232.32 8.55319 232.183 9.10004C232.047 9.64689 231.887 10.1937 231.728 10.7178C232.115 11.2191 232.502 11.7659 232.89 12.3128C233.277 12.8596 233.664 13.4293 234.029 13.9761C234.393 14.523 234.758 15.0698 235.1 15.5939C235.442 16.118 235.738 16.5965 235.988 17.0522C236.125 17.28 236.148 17.4623 236.08 17.6218C236.011 17.7813 235.897 17.918 235.761 18.0547C235.624 18.1687 235.419 18.3054 235.145 18.4877C234.872 18.6699 234.621 18.7839 234.416 18.8522C233.778 19.0801 233.345 18.9662 233.095 18.4649C232.776 17.8725 232.411 17.1433 231.955 16.323C231.5 15.5028 231.044 14.7053 230.566 13.9306C230.155 14.8648 229.722 15.7306 229.221 16.5737C228.72 17.394 228.15 18.1915 227.512 18.9662C227.353 19.1484 227.125 19.2852 226.874 19.3535C226.601 19.4446 226.35 19.4674 226.122 19.4219C225.872 19.3763 225.644 19.3307 225.462 19.2624C225.279 19.194 225.12 19.1256 224.96 19.0573C224.755 18.9662 224.664 18.8294 224.664 18.6244C224.664 18.4193 224.732 18.2598 224.846 18.1003C225.894 16.642 226.76 15.0243 227.489 13.247C228.219 11.4697 228.811 9.55576 229.267 7.52785L228.879 7.61898C228.196 7.82405 227.558 7.9152 226.965 7.9152C226.738 7.9152 226.555 7.89241 226.441 7.82405C226.327 7.7557 226.213 7.66456 226.1 7.52785C225.894 7.23164 225.712 6.86707 225.53 6.45693C225.348 6.024 225.234 5.63665 225.165 5.27208C225.12 5.13537 225.165 4.99866 225.256 4.90751C225.348 4.81637 225.484 4.7708 225.621 4.81637C226.077 4.90751 226.555 4.97587 227.079 4.99866C227.603 5.02144 228.15 5.04423 228.765 5.04423H230.657L230.702 4.95309ZM241.184 21.7232C241.184 22.2017 241.047 22.5435 240.751 22.7713C240.432 22.9992 240.113 23.2042 239.771 23.3637C239.429 23.5232 239.042 23.5916 238.654 23.5916C238.267 23.5916 238.085 23.3637 238.085 22.9308V12.5406C237.31 12.7457 236.581 12.8369 235.875 12.8369C235.647 12.8369 235.464 12.8141 235.35 12.7457C235.237 12.7001 235.123 12.5862 235.009 12.4495C234.804 12.1533 234.621 11.8115 234.439 11.4014C234.257 10.9912 234.143 10.6039 234.074 10.2393C234.029 10.1026 234.074 9.96589 234.166 9.87475C234.257 9.78361 234.393 9.73803 234.53 9.78361C235.419 9.9431 236.467 10.0342 237.675 10.0342H238.085V6.06957C238.085 5.47715 237.902 5.04423 237.561 4.74802C237.105 4.31509 236.604 3.99609 236.034 3.79102C235.829 3.72267 235.761 3.58596 235.783 3.38089C235.829 3.13025 235.897 2.83404 236.011 2.51504C236.125 2.19605 236.262 1.9454 236.376 1.76312C236.513 1.6264 236.649 1.58084 236.809 1.62641C237.583 1.78591 238.313 2.03654 238.996 2.37833C239.68 2.72011 240.318 3.08468 240.956 3.5176C241.366 3.74545 241.525 4.04166 241.48 4.36066C241.434 4.7708 241.366 5.20373 241.297 5.65944C241.229 6.11515 241.184 6.57085 241.184 7.04935V21.7232ZM245.991 23.3637C245.991 23.8195 245.832 24.1612 245.536 24.4119C245.217 24.6397 244.898 24.8448 244.533 25.0043C244.168 25.1638 243.781 25.2322 243.394 25.2322C243.006 25.2322 242.801 25.0043 242.801 24.5714V4.65687C242.801 4.13281 242.619 3.69989 242.277 3.38089C242.049 3.15304 241.799 2.97075 241.525 2.81126C241.252 2.65176 241.001 2.51504 240.751 2.4239C240.546 2.35554 240.477 2.21883 240.5 2.01376C240.546 1.76312 240.614 1.4669 240.728 1.14791C240.842 0.828912 240.978 0.578276 241.092 0.395992C241.184 0.259279 241.32 0.213705 241.525 0.259276C242.3 0.418774 243.052 0.669419 243.758 1.0112C244.465 1.35298 245.148 1.71755 245.786 2.15047C246.128 2.37833 246.287 2.65175 246.219 2.99353C246.174 3.40367 246.105 3.8366 246.06 4.29231C246.014 4.74802 245.991 5.20373 245.991 5.68222V23.3637Z" fill="#FF0000"/>
<path d="M252.713 3.24448C253.168 3.29005 253.647 3.31284 254.171 3.33562C254.672 3.33562 255.174 3.3584 255.675 3.3584H263.581C264.014 3.3584 264.424 3.1989 264.789 2.90269C264.926 2.81155 265.062 2.76598 265.222 2.78877C265.381 2.78877 265.564 2.83434 265.746 2.87991C266.065 2.97105 266.384 3.08497 266.703 3.22169C267.022 3.3584 267.341 3.5179 267.614 3.70019C267.819 3.8369 267.911 4.06475 267.911 4.40653C267.865 4.90781 267.819 5.43188 267.751 5.93316C267.683 6.29773 267.614 6.68509 267.569 7.11801C267.523 7.55093 267.455 7.96107 267.387 8.32564H267.66C267.797 8.32564 267.933 8.37121 268.047 8.43956C268.161 8.5307 268.252 8.62185 268.344 8.73578C268.48 8.96363 268.617 9.21427 268.708 9.53326C268.799 9.85226 268.845 10.1485 268.868 10.4219C268.913 10.7865 268.731 10.946 268.321 10.9232C267.911 10.8776 267.455 10.8548 266.976 10.832C266.498 10.8092 266.019 10.7865 265.564 10.7865H256.905C256.905 10.9688 256.882 11.151 256.882 11.3105V13.1106C256.882 13.3384 256.928 13.4979 257.019 13.5663C257.11 13.6346 257.247 13.6802 257.452 13.6802H263.354C264.037 13.6802 264.789 13.5891 265.587 13.384C266.247 13.2245 266.931 13.1334 267.66 13.1334C267.979 13.1334 268.252 13.2701 268.48 13.5435C268.708 13.8397 268.913 14.1815 269.05 14.5916C269.187 15.0018 269.278 15.3891 269.323 15.7993C269.323 16.0955 269.164 16.2094 268.799 16.1866C268.321 16.1411 267.797 16.0955 267.25 16.0727C266.703 16.0499 266.133 16.0499 265.609 16.0499H262.761V19.6044H266.84C267.523 19.6044 268.275 19.5133 269.073 19.3082C269.733 19.1487 270.417 19.0576 271.146 19.0576C271.465 19.0576 271.739 19.1943 271.966 19.4677C272.194 19.7639 272.399 20.1057 272.536 20.5387C272.673 20.9488 272.764 21.3589 272.81 21.7691C272.81 22.0881 272.65 22.202 272.285 22.1564C271.807 22.0881 271.283 22.0425 270.736 21.9969C270.189 21.9513 269.62 21.9513 269.095 21.9513H255.515C255.105 21.9513 254.718 21.9513 254.33 22.0197C253.943 22.0653 253.601 22.1336 253.26 22.2248C252.485 22.4071 251.756 22.521 251.049 22.521C250.822 22.521 250.639 22.4982 250.525 22.4298C250.411 22.3843 250.297 22.2703 250.184 22.1336C249.978 21.8374 249.796 21.4729 249.614 21.0399C249.432 20.607 249.318 20.1969 249.249 19.8323C249.204 19.6956 249.249 19.5589 249.34 19.4677C249.432 19.3766 249.568 19.331 249.705 19.3766C250.594 19.5361 251.642 19.6272 252.849 19.6272H259.275V16.0727H256.45C256.222 16.0727 255.971 16.0727 255.743 16.0271C255.515 16.0043 255.287 15.9588 255.105 15.9132C254.513 15.7081 254.103 15.4119 253.852 14.979C253.624 14.66 253.533 14.341 253.533 13.9764V11.7662C253.533 11.3561 253.419 11.0599 253.168 10.9004C253.032 10.7865 252.872 10.6953 252.713 10.6498C252.553 10.6042 252.371 10.513 252.143 10.4447C251.984 10.3991 251.892 10.2624 251.892 10.0801C251.892 9.92062 251.915 9.66998 251.984 9.35098C252.052 9.03199 252.098 8.80413 252.166 8.6902C252.234 8.55349 252.348 8.46235 252.485 8.46235C252.804 8.46235 253.191 8.46235 253.67 8.46235C254.148 8.48514 254.627 8.53071 255.082 8.62185L264.288 8.53071V5.75088H257.475C257.179 5.75088 256.882 5.77366 256.541 5.84202C256.222 5.91038 255.903 5.95595 255.629 6.02431C255.333 6.06988 255.037 6.13823 254.741 6.18381C254.444 6.22938 254.125 6.25216 253.829 6.25216C253.51 6.25216 253.237 6.11545 253.009 5.84202C252.781 5.54581 252.576 5.22681 252.439 4.83946C252.303 4.47489 252.211 4.08754 252.166 3.6774C252.166 3.38119 252.325 3.26726 252.69 3.29005L252.713 3.24448Z" fill="#FF0000"/>
<path d="M299.036 12.1073C299.036 12.1073 298.968 12.1073 298.945 12.1073H298.899C298.125 12.3124 297.396 12.4035 296.689 12.4035C296.461 12.4035 296.279 12.3807 296.165 12.3124C296.051 12.2668 295.937 12.1529 295.823 12.0161C295.755 11.9478 295.687 11.8339 295.595 11.6744C295.527 12.4946 295.322 13.2694 294.957 13.9529C294.616 14.6593 294.16 15.2745 293.568 15.7985C292.998 16.3226 292.314 16.7327 291.54 17.0062C290.765 17.3024 289.922 17.4391 288.988 17.4391C287.985 17.4391 287.074 17.2796 286.253 16.9378C285.433 16.596 284.727 16.1403 284.157 15.5707C283.588 15.001 283.132 14.3175 282.836 13.5428C282.517 12.7681 282.38 11.925 282.38 11.0136C282.38 10.1022 282.539 9.28189 282.836 8.4844C283.155 7.68691 283.588 7.00335 284.157 6.43371C284.727 5.86408 285.433 5.40836 286.253 5.06658C287.074 4.7248 287.985 4.5653 288.988 4.5653C289.831 4.5653 290.605 4.67923 291.312 4.90708C292.018 5.13494 292.656 5.47672 293.203 5.88686C293.75 6.297 294.206 6.79828 294.593 7.36792C294.957 7.93756 295.231 8.57554 295.39 9.25911C295.846 9.32746 296.325 9.39582 296.826 9.41861C297.327 9.46418 297.874 9.46418 298.489 9.46418H299.036V4.54252C299.036 3.99566 298.877 3.56274 298.535 3.26653C298.284 3.03867 298.034 2.85639 297.783 2.69689C297.532 2.53739 297.282 2.42346 297.031 2.33232C296.803 2.24118 296.689 2.08169 296.735 1.87662C296.78 1.62598 296.849 1.35255 296.963 1.03355C297.077 0.73734 297.213 0.486701 297.327 0.304417C297.441 0.167704 297.601 0.0993482 297.828 0.144919C298.626 0.281632 299.401 0.532271 300.153 0.874054C300.904 1.21584 301.588 1.60319 302.226 2.01333C302.568 2.24118 302.727 2.51461 302.659 2.85639C302.613 3.26653 302.545 3.69946 302.499 4.15517C302.454 4.61088 302.431 5.06658 302.431 5.54507V23.2494C302.431 23.6823 302.249 24.0241 301.907 24.2975C301.588 24.5254 301.246 24.7304 300.859 24.8899C300.472 25.0494 300.061 25.1178 299.674 25.1178C299.241 25.1178 299.013 24.8899 299.013 24.457V12.0161L299.036 12.1073ZM292.155 11.0592C292.155 10.5123 292.086 9.98824 291.927 9.48696C291.79 8.98568 291.562 8.55276 291.289 8.18819C291.016 7.82362 290.674 7.52741 290.286 7.29956C289.899 7.0717 289.443 6.98056 288.965 6.98056C288.486 6.98056 288.031 7.09449 287.643 7.29956C287.256 7.52741 286.914 7.80084 286.641 8.18819C286.367 8.55276 286.162 8.98568 286.003 9.48696C285.866 9.98824 285.775 10.5123 285.775 11.0592C285.775 11.606 285.843 12.1301 286.003 12.6314C286.139 13.1326 286.367 13.5656 286.641 13.9301C286.914 14.2947 287.256 14.5909 287.643 14.796C288.031 15.0238 288.486 15.115 288.965 15.115C289.443 15.115 289.899 15.001 290.286 14.796C290.674 14.5681 291.016 14.2947 291.289 13.9301C291.562 13.5656 291.767 13.1326 291.927 12.6314C292.064 12.1301 292.155 11.606 292.155 11.0592Z" fill="#FF0000"/>
<path d="M308.036 5.91015C308.036 5.50002 307.922 5.20381 307.671 5.04431C307.534 4.95317 307.398 4.88481 307.284 4.81645C307.17 4.77088 307.01 4.70253 306.805 4.63417C306.646 4.5886 306.555 4.45189 306.555 4.26961C306.555 4.11011 306.577 3.85947 306.646 3.54047C306.714 3.22148 306.76 2.99362 306.828 2.87969C306.896 2.74298 307.01 2.65183 307.147 2.65183C307.443 2.65183 307.785 2.65183 308.218 2.65183C308.628 2.65183 309.061 2.72019 309.494 2.78855L310.223 2.62905C310.519 2.58348 310.838 2.51512 311.18 2.46955C311.522 2.42398 311.864 2.4012 312.16 2.4012C312.479 2.4012 312.752 2.53791 312.98 2.81134L313.345 3.31261C313.345 3.13033 313.413 2.97083 313.481 2.8569C313.55 2.72019 313.664 2.62905 313.8 2.62905C314.165 2.62905 314.552 2.62905 314.985 2.67462C315.395 2.69741 315.828 2.76576 316.261 2.8569C316.466 2.81133 316.671 2.78855 316.854 2.74298C317.059 2.6974 317.241 2.67462 317.423 2.62905C317.72 2.58348 318.016 2.51512 318.335 2.46955C318.654 2.42398 318.95 2.4012 319.269 2.4012C319.588 2.4012 319.861 2.53791 320.089 2.81134C320.317 3.10755 320.522 3.42655 320.659 3.74554C320.796 4.08732 320.887 4.45189 320.932 4.86202C320.932 5.15824 320.773 5.27217 320.408 5.24938C319.953 5.20381 319.474 5.18102 318.95 5.15824C318.426 5.15824 317.925 5.13545 317.423 5.13545H317.332C317.332 5.34052 317.309 5.54559 317.309 5.75066V10.4672C317.309 10.7862 317.446 10.923 317.742 10.923C318.016 10.923 318.312 10.923 318.654 10.8774C318.996 10.8546 319.337 10.809 319.702 10.7635C320.066 10.7179 320.431 10.6495 320.773 10.5812C321.115 10.5128 321.434 10.4445 321.707 10.3533C321.844 10.3078 321.958 10.3533 322.026 10.3989C322.094 10.4673 322.14 10.5584 322.14 10.6723C322.14 10.8774 322.094 11.1052 322.026 11.3787C321.958 11.6521 321.867 11.88 321.775 12.085C321.73 12.199 321.639 12.2901 321.548 12.3357C321.456 12.404 321.342 12.4496 321.251 12.4952C321.115 12.5863 320.887 12.6774 320.613 12.7914C320.34 12.8825 320.044 12.9964 319.702 13.0876C319.383 13.1787 319.041 13.2927 318.699 13.3838C318.358 13.4749 318.061 13.5433 317.788 13.5661C317.309 13.6116 316.854 13.5661 316.398 13.4066C316.125 13.3154 315.874 13.2015 315.623 13.042C315.373 12.9053 315.145 12.7458 314.963 12.5863C314.735 12.6774 314.484 12.7686 314.211 12.8825C313.937 12.9964 313.641 13.0876 313.322 13.1787C313.003 13.2699 312.707 13.361 312.433 13.4294C312.16 13.4977 311.909 13.5433 311.681 13.5661C311.203 13.6116 310.747 13.5661 310.292 13.4066C309.859 13.2699 309.448 13.042 309.084 12.7458C308.719 12.4496 308.446 12.1989 308.286 11.9711C308.172 11.8344 308.104 11.6749 308.059 11.4926C308.013 11.3103 307.99 11.1508 307.99 10.9913V5.91015H308.036ZM311.727 10.9458C311.978 10.9458 312.319 10.9457 312.752 10.9002C313.185 10.8546 313.641 10.809 314.165 10.7179V5.79623C314.165 5.3633 314.097 5.06709 313.937 4.93038C313.892 4.88481 313.869 4.88482 313.846 4.88482C313.846 5.20381 313.687 5.34053 313.322 5.29495C313.003 5.24938 312.684 5.22659 312.342 5.22659C312 5.22659 311.659 5.22659 311.294 5.18102C311.294 5.40887 311.271 5.61395 311.271 5.8418V10.5128C311.271 10.8318 311.408 10.9685 311.704 10.9685L311.727 10.9458ZM325.649 21.6549C325.649 22.2929 325.512 22.8853 325.216 23.4094C324.943 23.9562 324.532 24.412 324.031 24.7993C323.53 25.1867 322.937 25.4829 322.254 25.7107C321.57 25.9386 320.818 26.0297 319.998 26.0297C319.178 26.0297 318.426 25.9158 317.742 25.7107C317.059 25.4829 316.466 25.1867 315.965 24.7993C315.464 24.412 315.054 23.9562 314.78 23.4094C314.507 22.8625 314.37 22.2929 314.37 21.6549C314.37 20.9258 314.621 20.265 315.099 19.6954C314.78 19.7637 314.484 19.8093 314.165 19.8549C313.846 19.8777 313.55 19.9004 313.254 19.9004C313.026 19.9004 312.843 19.8777 312.73 19.8093C312.616 19.7637 312.502 19.6498 312.388 19.5131C312.183 19.2169 312 18.8751 311.818 18.4422C311.636 18.032 311.522 17.6219 311.454 17.2573C311.408 17.1206 311.454 16.9839 311.545 16.8928C311.636 16.8016 311.773 16.756 311.909 16.8016C312.798 16.9611 313.846 17.0523 315.054 17.0523H318.403V16.9383C318.403 16.6649 318.358 16.4598 318.289 16.3003C318.221 16.1636 318.107 16.0269 317.925 15.9358C317.765 15.8446 317.583 15.7763 317.401 15.7535C317.218 15.7079 317.036 15.6623 316.877 15.6168C316.649 15.5256 316.535 15.3661 316.58 15.1611C316.626 14.9104 316.671 14.6598 316.763 14.4319C316.854 14.2041 316.945 13.999 317.082 13.8167C317.196 13.68 317.355 13.6116 317.583 13.6572C318.335 13.7484 318.996 13.8395 319.611 13.9534C320.226 14.0674 320.796 14.2041 321.32 14.3864C321.502 14.4319 321.639 14.5459 321.707 14.7053C321.775 14.8648 321.798 15.0471 321.753 15.2294C321.707 15.5484 321.684 15.8446 321.639 16.1408C321.593 16.437 321.57 16.756 321.548 17.0523H322.072C322.755 17.0523 323.507 16.9611 324.305 16.756C324.965 16.5965 325.649 16.5054 326.378 16.5054C326.697 16.5054 326.971 16.6421 327.198 16.9155C327.426 17.2118 327.631 17.5307 327.768 17.9181C327.905 18.2827 327.996 18.67 328.041 19.0802C328.041 19.3764 327.882 19.4903 327.517 19.4675C327.062 19.4219 326.56 19.3764 326.036 19.3536C325.512 19.3308 324.988 19.3308 324.487 19.3308C324.829 19.6498 325.102 19.9916 325.307 20.3789C325.512 20.7663 325.603 21.1992 325.603 21.6777L325.649 21.6549ZM322.231 21.541C322.231 20.903 322.026 20.3789 321.616 19.9916C321.206 19.6042 320.659 19.3992 319.998 19.3992C319.337 19.3992 318.79 19.6042 318.38 19.9916C317.97 20.3789 317.765 20.903 317.765 21.541C317.765 22.179 317.97 22.7031 318.38 23.0904C318.79 23.4778 319.337 23.6828 319.998 23.6828C320.659 23.6828 321.206 23.4778 321.616 23.0904C322.026 22.7031 322.231 22.179 322.231 21.541ZM327.289 12.9737C327.289 13.4066 327.107 13.7484 326.765 14.0218C326.446 14.2496 326.105 14.4547 325.717 14.6142C325.33 14.7737 324.92 14.8421 324.532 14.8421C324.1 14.8421 323.872 14.6142 323.872 14.1813V8.8267L323.37 8.94063C322.596 9.1457 321.867 9.23684 321.16 9.23684C320.932 9.23684 320.75 9.21405 320.636 9.1457C320.522 9.10013 320.408 8.9862 320.294 8.84948C320.089 8.55327 319.907 8.1887 319.725 7.75578C319.542 7.32286 319.429 6.91272 319.36 6.54815C319.315 6.41144 319.36 6.27473 319.451 6.18359C319.542 6.09244 319.679 6.04687 319.816 6.09244C320.704 6.25194 321.753 6.34308 322.96 6.34308H323.872V4.52025C323.872 3.95061 323.689 3.51768 323.348 3.22147C323.097 3.0164 322.846 2.8569 322.596 2.74298C322.345 2.60626 322.094 2.51512 321.844 2.42398C321.616 2.33284 321.525 2.19612 321.548 2.01384C321.593 1.7632 321.661 1.46699 321.798 1.17078C321.935 0.851784 322.049 0.62393 322.186 0.441646C322.277 0.304934 322.413 0.259359 322.618 0.30493C323.393 0.441643 324.191 0.6695 324.965 0.965711C325.74 1.26192 326.469 1.62649 327.107 2.03663C327.449 2.26449 327.608 2.53791 327.54 2.87969C327.495 3.28983 327.426 3.72275 327.381 4.17846C327.335 4.63417 327.289 5.08988 327.289 5.56838V12.9964V12.9737Z" fill="#FF0000"/>
<path d="M337.976 5.24938C338.455 5.24938 338.887 5.08988 339.252 4.74809C339.366 4.65695 339.503 4.61138 339.685 4.63417C339.867 4.63417 340.05 4.67974 340.232 4.74809C340.551 4.86202 340.87 4.99874 341.212 5.20381C341.553 5.38609 341.872 5.59116 342.146 5.81901C342.282 5.93294 342.351 6.04687 342.328 6.18358C342.305 6.32029 342.26 6.457 342.237 6.57093C341.918 7.41399 341.622 8.21149 341.303 8.94062C340.984 9.69254 340.665 10.3989 340.3 11.0597C340.665 11.1052 341.052 11.1508 341.462 11.1736C341.872 11.1964 342.305 11.1964 342.784 11.1964H344.014V6.00129C344.014 5.40887 343.832 4.97595 343.49 4.67974C343.034 4.24682 342.533 3.92782 341.963 3.72275C341.758 3.65439 341.69 3.51768 341.713 3.31261C341.758 3.06197 341.827 2.76576 341.941 2.44677C342.055 2.12777 342.191 1.87712 342.305 1.69484C342.442 1.55813 342.579 1.51255 342.738 1.55813C343.513 1.71762 344.242 1.96827 344.926 2.31005C345.609 2.65183 346.247 3.0164 346.885 3.44932C347.295 3.67718 347.455 3.97339 347.409 4.29238C347.364 4.70252 347.295 5.13545 347.227 5.59115C347.159 6.04686 347.113 6.50257 347.113 6.98107V21.6549C347.113 22.1334 346.976 22.4752 346.68 22.703C346.361 22.9309 346.042 23.136 345.7 23.2955C345.359 23.455 344.971 23.5233 344.584 23.5233C344.196 23.5233 344.014 23.2955 344.014 22.8625V13.5661C343.877 13.5661 343.718 13.6116 343.581 13.6116C343.445 13.6116 343.308 13.6572 343.194 13.7028C342.419 13.9079 341.69 13.999 340.984 13.999C340.756 13.999 340.574 13.9762 340.46 13.9079C340.346 13.8623 340.232 13.7484 340.118 13.6116C340.004 13.4749 339.913 13.2926 339.799 13.1104C339.685 12.9281 339.594 12.723 339.503 12.4952C338.751 13.7256 337.976 14.8648 337.133 15.8674C336.313 16.87 335.401 17.827 334.444 18.6928C334.125 18.989 333.761 19.1029 333.351 19.0574C333.123 19.0118 332.872 18.9434 332.621 18.8067C332.371 18.67 332.143 18.5333 331.892 18.351C331.756 18.2599 331.687 18.146 331.733 17.9865C331.778 17.8497 331.847 17.713 331.938 17.5991C333.351 16.0953 334.604 14.5231 335.675 12.8369C336.746 11.1508 337.566 9.39633 338.113 7.5735H337.247C337.11 7.5735 336.928 7.57349 336.677 7.61906C336.427 7.64185 336.153 7.71021 335.811 7.80135C335.037 8.00642 334.308 8.09756 333.601 8.09756C333.373 8.09756 333.191 8.07477 333.077 8.00642C332.963 7.96085 332.849 7.84692 332.735 7.7102C332.53 7.41399 332.348 7.04942 332.166 6.63928C331.983 6.22915 331.87 5.8418 331.801 5.47723C331.756 5.34052 331.801 5.2038 331.892 5.11266C331.983 5.02152 332.12 4.97595 332.257 5.02152C332.713 5.11266 333.191 5.15823 333.715 5.18102C334.216 5.18102 334.786 5.20381 335.401 5.20381H337.953L337.976 5.24938ZM352.354 23.341C352.354 23.7967 352.194 24.1385 351.898 24.3892C351.579 24.617 351.26 24.8221 350.895 24.9816C350.531 25.1411 350.143 25.2094 349.756 25.2094C349.369 25.2094 349.164 24.9816 349.164 24.5487V4.63417C349.164 4.1101 348.981 3.67718 348.64 3.35818C348.412 3.13032 348.161 2.94804 347.888 2.78854C347.614 2.62904 347.364 2.49234 347.113 2.40119C346.908 2.33284 346.84 2.19612 346.862 1.99105C346.908 1.74041 346.976 1.4442 347.09 1.1252C347.204 0.806208 347.341 0.555563 347.455 0.37328C347.546 0.236567 347.683 0.191001 347.888 0.236572C348.662 0.396071 349.414 0.646706 350.121 0.988488C350.827 1.33027 351.511 1.69484 352.149 2.12776C352.49 2.35562 352.65 2.62905 352.582 2.97083C352.536 3.38097 352.468 3.81389 352.422 4.2696C352.376 4.72531 352.354 5.18102 352.354 5.65952V23.341Z" fill="#FF0000"/>
<path d="M378.103 14.6141C378.24 14.5685 378.354 14.6141 378.422 14.6597C378.491 14.728 378.536 14.8192 378.536 14.9331C378.536 15.1382 378.491 15.366 378.422 15.6394C378.354 15.9129 378.263 16.1407 378.172 16.3458C378.058 16.5509 377.898 16.6876 377.648 16.7559C377.169 16.8927 376.577 17.0522 375.87 17.2117C375.164 17.3712 374.412 17.5306 373.66 17.6674C372.885 17.8269 372.156 17.9636 371.427 18.0547C370.698 18.1459 370.06 18.237 369.536 18.3054C369.308 18.3054 369.08 18.3054 368.83 18.3054C368.579 18.3054 368.351 18.237 368.123 18.1459C367.69 18.0091 367.28 17.7813 366.916 17.4851C366.551 17.1889 366.278 16.9382 366.118 16.7104C366.004 16.5737 365.936 16.4142 365.89 16.2319C365.845 16.0496 365.822 15.8901 365.822 15.7306V7.68732C365.822 7.27718 365.708 6.98097 365.457 6.82147C365.321 6.70755 365.093 6.6164 364.797 6.52526C364.5 6.43412 364.25 6.36576 364.045 6.29741C363.885 6.25184 363.794 6.11512 363.794 5.93284C363.794 5.77334 363.817 5.5227 363.885 5.20371C363.953 4.88471 363.999 4.65685 364.067 4.54293C364.136 4.40621 364.25 4.31507 364.386 4.31507C364.614 4.31507 364.933 4.31507 365.343 4.31507C365.753 4.33786 366.164 4.38342 366.597 4.45178C367.029 4.52014 367.462 4.5885 367.873 4.67964C368.283 4.77078 368.647 4.86192 368.921 4.97585C369.24 5.11256 369.376 5.3632 369.308 5.77334C369.217 6.25184 369.171 6.7759 369.149 7.34554C369.126 7.91517 369.126 8.43924 369.126 8.91773V15.2065C369.126 15.5255 369.262 15.6622 369.559 15.6622C369.946 15.6622 370.447 15.6395 371.108 15.5711C371.746 15.5255 372.475 15.4344 373.25 15.3432C374.025 15.2521 374.822 15.1382 375.665 15.0015C376.508 14.8647 377.306 14.728 378.103 14.5913V14.6141ZM379.493 4.63407C379.493 4.08722 379.334 3.65429 378.992 3.35808C378.741 3.13022 378.491 2.94794 378.24 2.78844C377.989 2.62894 377.739 2.51502 377.488 2.42388C377.26 2.33273 377.146 2.17323 377.192 1.96816C377.237 1.71752 377.306 1.4441 377.42 1.1251C377.534 0.828893 377.67 0.578253 377.784 0.395969C377.898 0.259257 378.058 0.190901 378.286 0.236472C379.083 0.373185 379.858 0.623824 380.61 0.965606C381.362 1.30739 382.045 1.69474 382.683 2.10488C383.025 2.33273 383.184 2.60616 383.116 2.94794C383.07 3.35808 383.002 3.791 382.957 4.24671C382.911 4.70242 382.888 5.15813 382.888 5.63663V9.82915H383.139C383.389 9.82915 383.64 9.82916 383.845 9.7608C384.073 9.71523 384.301 9.64687 384.529 9.57851C385.007 9.4418 385.417 9.35066 385.759 9.35066C386.055 9.35066 386.283 9.46459 386.465 9.71523C386.716 10.0342 386.921 10.376 387.058 10.7861C387.195 11.1963 387.286 11.5609 387.309 11.9254C387.309 12.0621 387.286 12.1988 387.195 12.29C387.103 12.3811 386.967 12.4039 386.807 12.3811C386.443 12.3356 386.078 12.29 385.691 12.2444C385.303 12.1988 384.871 12.1988 384.369 12.1988H382.888V23.3637C382.888 23.7966 382.706 24.1384 382.364 24.4119C382.045 24.6397 381.703 24.8448 381.316 25.0043C380.929 25.1638 380.518 25.2321 380.131 25.2321C379.698 25.2321 379.47 25.0043 379.47 24.5714V4.65685L379.493 4.63407Z" fill="#FF0000"/>
<path d="M399.907 12.7001C399.451 12.6546 398.973 12.6318 398.448 12.609C397.947 12.609 397.446 12.5862 396.945 12.5862H393.481V16.0952C393.481 16.4142 393.618 16.5509 393.914 16.5509C394.302 16.5509 394.826 16.5281 395.509 16.4597C396.193 16.4142 396.922 16.323 397.719 16.2319C398.517 16.1407 399.36 16.0268 400.226 15.8901C401.092 15.7534 401.935 15.6167 402.709 15.4799C402.846 15.4344 402.96 15.48 403.028 15.5255C403.097 15.5939 403.142 15.685 403.142 15.7989C403.142 16.004 403.097 16.2319 403.028 16.5053C402.96 16.7787 402.869 17.0066 402.778 17.2117C402.664 17.4167 402.504 17.5534 402.254 17.6218C401.775 17.7585 401.183 17.918 400.431 18.0775C399.702 18.237 398.927 18.3965 398.129 18.5332C397.332 18.6927 396.557 18.8294 395.783 18.9206C395.031 19.0345 394.393 19.1028 393.846 19.1712C393.618 19.1712 393.39 19.1712 393.139 19.1712C392.889 19.1712 392.661 19.1028 392.433 19.0117C392 18.875 391.59 18.6471 391.225 18.3509C390.861 18.0547 390.587 17.8041 390.428 17.5762C390.314 17.4395 390.246 17.28 390.2 17.0977C390.155 16.9154 390.132 16.7559 390.132 16.5964V7.48225C390.132 7.07211 390.018 6.7759 389.767 6.6164C389.63 6.50248 389.448 6.43412 389.243 6.36576C389.038 6.2974 388.833 6.22905 388.605 6.16069C388.446 6.11512 388.354 5.97841 388.354 5.79612C388.354 5.63663 388.377 5.38599 388.446 5.06699C388.514 4.74799 388.56 4.52014 388.628 4.40621C388.696 4.2695 388.81 4.17836 388.947 4.17836C389.334 4.17836 389.836 4.17836 390.474 4.22393C391.112 4.2695 391.727 4.33785 392.296 4.45178H395.304C395.6 4.45178 395.896 4.42899 396.238 4.36064C396.557 4.29228 396.876 4.24671 397.15 4.17836C397.446 4.13279 397.742 4.06443 398.038 4.01886C398.335 3.97329 398.654 3.95051 398.95 3.95051C399.269 3.95051 399.542 4.08721 399.77 4.36064C399.998 4.65685 400.203 4.97585 400.34 5.3632C400.476 5.72777 400.568 6.11512 400.613 6.52526C400.613 6.82147 400.454 6.9354 400.089 6.91262C399.633 6.86705 399.155 6.84426 398.631 6.82147C398.107 6.79869 397.628 6.79869 397.127 6.79869H393.413C393.413 7.00376 393.39 7.18604 393.39 7.39111V10.2165H395.031C395.327 10.2165 395.623 10.1937 395.965 10.1254C396.284 10.057 396.603 10.0114 396.876 9.94308C397.172 9.89751 397.469 9.82915 397.765 9.78358C398.061 9.73801 398.38 9.71523 398.676 9.71523C398.995 9.71523 399.269 9.85194 399.497 10.1254C399.724 10.4216 399.93 10.7406 400.066 11.1279C400.203 11.4925 400.294 11.8799 400.34 12.29C400.34 12.5862 400.18 12.7001 399.816 12.6773L399.907 12.7001ZM404.122 4.63407C404.122 4.08722 403.963 3.65429 403.621 3.35808C403.37 3.13022 403.119 2.94794 402.869 2.78844C402.618 2.62894 402.368 2.51502 402.117 2.42388C401.889 2.33273 401.775 2.17323 401.821 1.96816C401.866 1.71752 401.935 1.4441 402.049 1.1251C402.162 0.828893 402.299 0.578253 402.413 0.395969C402.527 0.259257 402.687 0.190901 402.914 0.236472C403.712 0.373185 404.487 0.623824 405.239 0.965606C405.99 1.30739 406.674 1.69474 407.312 2.10488C407.654 2.33273 407.813 2.60616 407.745 2.94794C407.699 3.35808 407.631 3.791 407.585 4.24671C407.54 4.70242 407.517 5.15813 407.517 5.63663V9.62408H407.768C408.018 9.62408 408.269 9.62409 408.474 9.55573C408.702 9.51016 408.93 9.4418 409.158 9.37344C409.636 9.23673 410.046 9.14559 410.388 9.14559C410.684 9.14559 410.912 9.25952 411.094 9.51016C411.345 9.82915 411.55 10.1709 411.687 10.5811C411.824 10.9912 411.915 11.3558 411.937 11.7204C411.937 11.8571 411.915 11.9938 411.824 12.0849C411.732 12.1761 411.596 12.1988 411.436 12.1761C411.072 12.1305 410.707 12.0849 410.32 12.0393C409.932 11.9938 409.499 11.9938 408.998 11.9938H407.517V23.3409C407.517 23.7739 407.335 24.1156 406.993 24.3891C406.674 24.6169 406.332 24.822 405.945 24.9815C405.558 25.141 405.147 25.2093 404.76 25.2093C404.327 25.2093 404.099 24.9815 404.099 24.5486V4.63407H404.122Z" fill="#FF0000"/>
<path d="M427.318 14.6141C427.455 14.5685 427.569 14.6141 427.637 14.6597C427.705 14.728 427.751 14.8192 427.751 14.9331C427.751 15.1382 427.705 15.366 427.637 15.6394C427.569 15.9129 427.478 16.1407 427.386 16.3458C427.273 16.5509 427.113 16.6876 426.862 16.7559C426.384 16.8927 425.791 17.0522 425.085 17.2117C424.379 17.3712 423.627 17.5306 422.875 17.6674C422.1 17.8269 421.371 17.9636 420.642 18.0547C419.913 18.1459 419.275 18.237 418.751 18.3054C418.523 18.3054 418.295 18.3054 418.044 18.3054C417.794 18.3054 417.566 18.237 417.338 18.1459C416.905 18.0091 416.495 17.7813 416.13 17.4851C415.766 17.1889 415.492 16.9382 415.333 16.7104C415.219 16.5737 415.151 16.4142 415.105 16.2319C415.059 16.0496 415.037 15.8901 415.037 15.7306V7.68732C415.037 7.27718 414.923 6.98097 414.672 6.82147C414.535 6.70755 414.308 6.6164 414.011 6.52526C413.715 6.43412 413.464 6.36576 413.259 6.29741C413.1 6.25184 413.009 6.11512 413.009 5.93284C413.009 5.77334 413.032 5.5227 413.1 5.20371C413.168 4.88471 413.214 4.65685 413.282 4.54293C413.351 4.40621 413.465 4.31507 413.601 4.31507C413.829 4.31507 414.148 4.31507 414.558 4.31507C414.968 4.33786 415.379 4.38342 415.811 4.45178C416.244 4.52014 416.677 4.5885 417.087 4.67964C417.498 4.77078 417.862 4.86192 418.136 4.97585C418.455 5.11256 418.591 5.3632 418.523 5.77334C418.432 6.25184 418.386 6.7759 418.363 7.34554C418.341 7.91517 418.341 8.43924 418.341 8.91773V15.2065C418.341 15.5255 418.477 15.6622 418.774 15.6622C419.161 15.6622 419.662 15.6395 420.323 15.5711C420.961 15.5255 421.69 15.4344 422.465 15.3432C423.239 15.2521 424.037 15.1382 424.88 15.0015C425.723 14.8647 426.521 14.728 427.318 14.5913V14.6141ZM428.708 4.63407C428.708 4.08722 428.548 3.65429 428.207 3.35808C427.956 3.13022 427.705 2.94794 427.455 2.78844C427.204 2.62894 426.954 2.51502 426.703 2.42388C426.475 2.33273 426.361 2.17323 426.407 1.96816C426.452 1.71752 426.521 1.4441 426.635 1.1251C426.748 0.828893 426.885 0.578253 426.999 0.395969C427.113 0.259257 427.272 0.190901 427.5 0.236472C428.298 0.373185 429.073 0.623824 429.824 0.965606C430.576 1.30739 431.26 1.69474 431.898 2.10488C432.24 2.33273 432.399 2.60616 432.331 2.94794C432.285 3.35808 432.217 3.791 432.171 4.24671C432.126 4.70242 432.103 5.15813 432.103 5.63663V9.82915H432.354C432.604 9.82915 432.855 9.82916 433.06 9.7608C433.288 9.71523 433.516 9.64687 433.744 9.57851C434.222 9.4418 434.632 9.35066 434.974 9.35066C435.27 9.35066 435.498 9.46459 435.68 9.71523C435.931 10.0342 436.136 10.376 436.273 10.7861C436.409 11.1963 436.501 11.5609 436.523 11.9254C436.523 12.0621 436.501 12.1988 436.409 12.29C436.318 12.3811 436.182 12.4039 436.022 12.3811C435.658 12.3356 435.293 12.29 434.906 12.2444C434.518 12.1988 434.085 12.1988 433.584 12.1988H432.103V23.3637C432.103 23.7966 431.921 24.1384 431.579 24.4119C431.26 24.6397 430.918 24.8448 430.531 25.0043C430.143 25.1638 429.733 25.2321 429.346 25.2321C428.913 25.2321 428.685 25.0043 428.685 24.5714V4.65685L428.708 4.63407Z" fill="#FF0000"/>
<path d="M454.912 12.9735C455.596 12.9735 456.347 12.8823 457.145 12.6772C457.806 12.5177 458.489 12.4266 459.218 12.4266C459.537 12.4266 459.811 12.5633 460.039 12.8367C460.267 13.133 460.472 13.4975 460.608 13.9532C460.745 14.4089 460.836 14.7735 460.882 15.0925C460.882 15.3887 460.722 15.5026 460.358 15.4799C459.879 15.4343 459.355 15.3887 458.808 15.3659C458.239 15.3659 457.692 15.3432 457.168 15.3432H443.588C443.177 15.3432 442.79 15.3431 442.403 15.4115C442.015 15.4571 441.674 15.5254 441.332 15.6166C440.557 15.8216 439.828 15.9128 439.122 15.9128C438.894 15.9128 438.712 15.89 438.598 15.8216C438.484 15.7761 438.37 15.6621 438.256 15.5254C438.051 15.2292 437.868 14.8647 437.686 14.4089C437.504 13.9532 437.39 13.5659 437.322 13.2013C437.276 13.0646 437.322 12.9279 437.413 12.8367C437.504 12.7456 437.641 12.7 437.777 12.7456C438.666 12.9051 439.714 12.9962 440.922 12.9962H454.889L454.912 12.9735ZM445.183 7.50494C445.183 7.7328 445.228 7.8923 445.319 7.96065C445.41 8.02901 445.547 8.07458 445.752 8.07458H451.175C451.859 8.07458 452.611 7.98344 453.408 7.77837C454.069 7.61887 454.752 7.52773 455.482 7.52773C455.801 7.52773 456.074 7.66445 456.302 7.93787C456.53 8.23408 456.735 8.57586 456.872 8.986C457.008 9.39614 457.099 9.78349 457.145 10.1936C457.145 10.4898 456.985 10.6038 456.621 10.581C456.142 10.5354 455.618 10.4898 455.071 10.4671C454.525 10.4443 453.955 10.4443 453.431 10.4443H444.795C444.567 10.4443 444.317 10.4443 444.089 10.3987C443.861 10.3759 443.633 10.3303 443.451 10.2848C442.858 10.0797 442.448 9.78349 442.198 9.35057C441.97 9.03157 441.879 8.71257 441.879 8.348V4.83905C441.879 4.42891 441.765 4.13269 441.514 3.9732C441.377 3.85927 441.15 3.76812 440.853 3.67698C440.557 3.58584 440.306 3.51749 440.101 3.44913C439.942 3.40356 439.851 3.26685 439.851 3.08456C439.851 2.92507 439.874 2.67443 439.942 2.35543C440.01 2.03643 440.056 1.80858 440.124 1.69465C440.193 1.55794 440.307 1.4668 440.443 1.4668C440.671 1.4668 440.99 1.4668 441.4 1.4668C441.81 1.4668 442.22 1.53515 442.653 1.6035C443.086 1.67186 443.519 1.74022 443.929 1.83136C444.34 1.92251 444.704 2.01364 444.978 2.12757C445.297 2.26428 445.433 2.51493 445.365 2.92507C445.274 3.40356 445.228 3.83648 445.205 4.22384C445.183 4.61119 445.183 5.04411 445.183 5.52261V7.52773V7.50494ZM451.608 22.5889C452.292 22.5889 453.044 22.4978 453.841 22.2927C454.502 22.1332 455.185 22.0421 455.915 22.0421C456.234 22.0421 456.507 22.1788 456.735 22.4522C456.963 22.7484 457.168 23.0902 457.304 23.5003C457.441 23.9105 457.532 24.2978 457.578 24.708C457.578 25.0042 457.418 25.1181 457.054 25.0953C456.575 25.0498 456.051 25.0042 455.504 24.9814C454.935 24.9814 454.388 24.9586 453.864 24.9586H445.251C445 24.9586 444.75 24.9586 444.522 24.913C444.294 24.8903 444.066 24.8447 443.884 24.7991C443.61 24.708 443.36 24.5713 443.155 24.4118C442.927 24.2523 442.767 24.07 442.631 23.8649C442.539 23.7282 442.471 23.5687 442.403 23.4092C442.334 23.2497 442.312 23.0674 442.312 22.8624V20.8345C442.312 20.6066 442.289 20.3787 442.22 20.1509C442.152 19.923 442.061 19.7407 441.901 19.604C441.742 19.4673 441.56 19.3534 441.332 19.2622C441.127 19.1711 440.922 19.1027 440.717 19.0572C440.466 19.0116 440.352 18.8749 440.398 18.6926C440.398 18.4875 440.443 18.2825 440.512 18.0318C440.557 17.804 440.626 17.5761 440.694 17.3938C440.785 17.2116 440.967 17.1204 441.218 17.1204C441.833 17.1204 442.517 17.1888 443.291 17.3255C444.043 17.4622 444.818 17.6673 445.57 17.9635C445.707 18.009 445.821 18.123 445.866 18.2597C445.912 18.3964 445.935 18.5331 445.889 18.6926C445.821 19.0572 445.775 19.399 445.752 19.7407C445.752 20.0825 445.729 20.4015 445.729 20.7205V22.0649C445.729 22.2927 445.775 22.4294 445.866 22.4978C445.957 22.5661 446.094 22.6117 446.299 22.6117H451.608V22.5889Z" fill="#FF0000"/>
<path d="M472.365 7.34564C471.909 7.30007 471.431 7.27728 470.907 7.25449C470.406 7.25449 469.904 7.23171 469.403 7.23171H467.193C467.193 7.43678 467.17 7.61906 467.17 7.82413V15.8218C467.17 16.1408 467.307 16.2775 467.603 16.2775C468.378 16.2775 469.289 16.232 470.337 16.118C471.385 16.0041 472.479 15.799 473.664 15.48C473.801 15.4345 473.915 15.48 473.983 15.5256C474.051 15.5712 474.097 15.6851 474.097 15.799C474.097 16.0041 474.051 16.232 473.983 16.5054C473.915 16.7788 473.823 17.0067 473.732 17.2117C473.687 17.3257 473.596 17.4168 473.504 17.4624C473.413 17.5307 473.299 17.5763 473.208 17.6219C472.433 17.9409 471.568 18.1915 470.611 18.4194C469.654 18.6472 468.674 18.8067 467.694 18.8979C467.216 18.9434 466.76 18.8979 466.304 18.7384C465.871 18.6017 465.461 18.3738 465.097 18.0776C464.732 17.7814 464.459 17.5307 464.299 17.3029C464.185 17.1662 464.117 17.0067 464.071 16.8244C464.026 16.6421 464.003 16.4826 464.003 16.3231V7.89249C464.003 7.48235 463.889 7.18614 463.638 7.02664C463.502 6.91271 463.342 6.82157 463.183 6.776C463.023 6.70764 462.841 6.63929 462.613 6.57093C462.453 6.52536 462.362 6.38865 462.362 6.20636C462.362 6.04686 462.385 5.79623 462.453 5.47723C462.522 5.15823 462.567 4.93038 462.636 4.81645C462.704 4.67974 462.818 4.5886 462.955 4.5886C463.319 4.5886 463.775 4.5886 464.322 4.63417C464.869 4.67974 465.416 4.77088 465.94 4.86202H467.557C467.854 4.86202 468.15 4.83923 468.492 4.77088C468.811 4.70252 469.13 4.65695 469.403 4.5886C469.699 4.54303 469.995 4.47467 470.292 4.4291C470.588 4.38353 470.907 4.36074 471.203 4.36074C471.522 4.36074 471.796 4.49745 472.023 4.77088C472.251 5.06709 472.456 5.38609 472.593 5.77344C472.73 6.13801 472.821 6.52536 472.866 6.9355C472.866 7.23171 472.707 7.34564 472.342 7.32286L472.365 7.34564ZM478.107 21.7005C478.107 22.179 477.97 22.5208 477.674 22.7486C477.355 22.9765 477.036 23.1815 476.694 23.341C476.353 23.5005 475.965 23.5689 475.578 23.5689C475.191 23.5689 475.008 23.341 475.008 22.9081V12.4952C474.735 12.4952 474.507 12.5407 474.302 12.5407C474.12 12.5407 473.96 12.5863 473.823 12.6319C473.049 12.8369 472.32 12.9281 471.613 12.9281C471.385 12.9281 471.203 12.9053 471.089 12.8369C470.975 12.7914 470.861 12.6774 470.747 12.5407C470.542 12.2445 470.36 11.9027 470.178 11.4926C469.995 11.0825 469.882 10.6951 469.813 10.3305C469.768 10.1938 469.813 10.0571 469.904 9.96597C469.995 9.87483 470.132 9.82925 470.269 9.87482C471.157 10.0343 472.206 10.1255 473.413 10.1255H475.008V6.04687C475.008 5.45444 474.826 5.02152 474.484 4.72531C474.028 4.29239 473.527 3.97339 472.958 3.76832C472.753 3.69996 472.684 3.56325 472.707 3.35818C472.752 3.10754 472.821 2.81133 472.935 2.49233C473.049 2.17333 473.185 1.9227 473.299 1.74041C473.436 1.6037 473.573 1.55813 473.732 1.6037C474.507 1.7632 475.236 2.01384 475.92 2.35562C476.603 2.6974 477.241 3.06197 477.879 3.4949C478.289 3.72275 478.449 4.01896 478.403 4.33796C478.358 4.74809 478.289 5.18102 478.221 5.63673C478.153 6.09244 478.107 6.54815 478.107 7.02664V21.7005ZM483.325 23.341C483.325 23.7967 483.165 24.1385 482.869 24.3892C482.55 24.617 482.231 24.8221 481.867 24.9816C481.502 25.1411 481.115 25.2094 480.727 25.2094C480.34 25.2094 480.135 24.9816 480.135 24.5487V4.63417C480.135 4.1101 479.953 3.67718 479.611 3.35818C479.383 3.13032 479.132 2.94804 478.859 2.78854C478.586 2.62904 478.335 2.49234 478.084 2.40119C477.879 2.33284 477.811 2.19612 477.834 1.99105C477.879 1.74041 477.948 1.4442 478.061 1.1252C478.175 0.806208 478.312 0.555563 478.426 0.37328C478.517 0.236567 478.654 0.191001 478.859 0.236572C479.634 0.396071 480.386 0.646706 481.092 0.988488C481.798 1.33027 482.482 1.69484 483.12 2.12776C483.462 2.35562 483.621 2.62905 483.553 2.97083C483.507 3.38097 483.439 3.81389 483.393 4.2696C483.348 4.72531 483.325 5.18102 483.325 5.65952V23.341Z" fill="#FF0000"/>
<path d="M490.001 5.52273C489.613 5.84173 489.408 6.27466 489.408 6.79872C489.408 7.02658 489.385 7.25443 489.385 7.52786V8.2342C489.385 8.48484 489.249 8.62156 488.998 8.62156H487.745C487.517 8.62156 487.38 8.57598 487.289 8.48484C487.198 8.3937 487.13 8.27978 487.107 8.16585L486.605 4.83917C486.924 4.52017 487.289 4.20118 487.722 3.90497C488.155 3.60876 488.611 3.35811 489.135 3.10747C489.636 2.87962 490.183 2.67455 490.775 2.53783C491.368 2.40112 491.96 2.33276 492.598 2.33276C493.464 2.33276 494.284 2.42391 495.036 2.62898C495.788 2.83405 496.426 3.13026 496.973 3.51761C497.52 3.90496 497.953 4.40625 498.249 4.99867C498.568 5.59109 498.705 6.29744 498.705 7.09493C498.705 7.73292 498.613 8.30256 498.454 8.82663C498.294 9.35069 498.067 9.82919 497.748 10.2393C497.451 10.6722 497.087 11.0596 496.677 11.447C496.267 11.8115 495.834 12.1761 495.355 12.5179C494.877 12.8824 494.489 13.2926 494.147 13.7483C493.828 14.204 493.601 14.7053 493.487 15.2521C493.418 15.6167 493.373 16.0268 493.327 16.5053C493.282 16.9838 493.282 17.4167 493.282 17.8497H491.003C490.935 17.3256 490.889 16.7104 490.889 16.0496C490.889 15.3888 490.935 14.7736 491.071 14.2268C491.208 13.6344 491.459 13.0647 491.801 12.5179C492.142 11.971 492.575 11.4925 493.122 11.0824C493.76 10.5811 494.261 10.0343 494.626 9.44184C494.991 8.84942 495.173 8.12027 495.173 7.3C495.173 6.47972 494.922 5.91009 494.398 5.45438C493.897 4.99867 493.236 4.77082 492.439 4.72525C491.96 4.72525 491.504 4.77081 491.049 4.90752C490.593 5.04424 490.251 5.2493 489.978 5.49994L490.001 5.52273ZM494.33 22.2473C494.33 22.8853 494.125 23.4093 493.715 23.8195C493.304 24.2296 492.78 24.4347 492.142 24.4347C491.504 24.4347 490.98 24.2296 490.57 23.8195C490.16 23.4093 489.955 22.8853 489.955 22.2473C489.955 21.6093 490.16 21.0852 490.57 20.6751C490.98 20.2649 491.504 20.0599 492.142 20.0599C492.78 20.0599 493.304 20.2649 493.715 20.6751C494.125 21.0852 494.33 21.6093 494.33 22.2473Z" fill="#FF0000"/>
</svg>
