<svg width="224" height="58" viewBox="0 0 224 58" fill="none" xmlns="http://www.w3.org/2000/svg">
<path d="M0.820312 10.4667C0.820312 9.6009 0.979811 8.80341 1.27602 8.05149C1.57223 7.29957 2.00516 6.63879 2.55201 6.09194C3.09886 5.54509 3.73685 5.08938 4.48877 4.77038C5.24069 4.45138 6.06097 4.29189 6.9496 4.29189C7.83824 4.29189 8.65852 4.45138 9.41044 4.77038C10.1624 5.08938 10.8003 5.5223 11.3472 6.09194C11.8941 6.66158 12.327 7.29957 12.6232 8.05149C12.9194 8.80341 13.0789 9.62369 13.0789 10.4667C13.0789 11.3098 12.9194 12.1301 12.6232 12.882C12.327 13.6339 11.8941 14.2947 11.3472 14.8416C10.8003 15.3884 10.1624 15.8441 9.41044 16.1631C8.65852 16.4821 7.83824 16.6416 6.9496 16.6416C6.06097 16.6416 5.24069 16.4821 4.48877 16.1631C3.73685 15.8441 3.09886 15.4112 2.55201 14.8416C2.00516 14.2947 1.57223 13.6339 1.27602 12.882C0.979811 12.1301 0.820312 11.3098 0.820312 10.4667ZM2.34694 10.4667C2.34694 11.1731 2.46087 11.8339 2.68872 12.4263C2.91658 13.0187 3.23557 13.52 3.64571 13.9529C4.05585 14.3858 4.53434 14.7048 5.10398 14.9555C5.65083 15.1833 6.26604 15.3201 6.9496 15.3201C7.63317 15.3201 8.24838 15.2061 8.79523 14.9555C9.34208 14.7276 9.84336 14.3858 10.2535 13.9529C10.6636 13.52 10.9826 13.0187 11.2105 12.4263C11.4383 11.8339 11.5523 11.1731 11.5523 10.4667C11.5523 9.7604 11.4383 9.09962 11.2105 8.5072C10.9826 7.91478 10.6636 7.4135 10.2535 6.98057C9.84336 6.54765 9.36486 6.22865 8.79523 5.97801C8.24838 5.75016 7.63317 5.61344 6.9496 5.61344C6.26604 5.61344 5.65083 5.72737 5.10398 5.97801C4.55713 6.20587 4.05585 6.54765 3.64571 6.98057C3.23557 7.4135 2.91658 7.91478 2.68872 8.5072C2.46087 9.09962 2.34694 9.7604 2.34694 10.4667ZM17.1803 3.31211C17.1803 3.03869 17.1575 2.78805 17.0891 2.58298C17.0436 2.37791 16.9069 2.19562 16.7018 2.05891C16.4511 1.83106 16.2005 1.64877 15.9271 1.48927C15.6764 1.32978 15.403 1.19306 15.1068 1.03356C14.9701 0.987993 14.9017 0.896852 14.9245 0.760139C14.9701 0.509499 15.084 0.281644 15.2435 0.0993601C15.3347 0.00821825 15.4486 -0.0145672 15.6081 0.00821826C16.1094 0.144931 16.6106 0.35 17.1575 0.577855C17.7043 0.80571 18.2056 1.05635 18.6386 1.35256C18.8208 1.48927 18.912 1.67156 18.8892 1.89941C18.8436 2.30955 18.8208 2.71969 18.7753 3.1754C18.7297 3.63111 18.7069 4.08682 18.7069 4.56531V9.98825H19.7778C20.0285 9.98825 20.2791 9.98825 20.507 9.9199C20.7348 9.87433 20.9855 9.82876 21.2133 9.80597C21.4412 9.7604 21.6462 9.73761 21.8741 9.71483C22.1019 9.71483 22.307 9.69204 22.5121 9.69204C22.7399 9.69204 22.945 9.78318 23.1045 9.96547C23.2412 10.125 23.3324 10.33 23.4235 10.5351C23.5146 10.763 23.583 10.968 23.6058 11.1731C23.6514 11.401 23.5602 11.4921 23.2868 11.4465C22.5804 11.3326 21.7374 11.287 20.7804 11.287H18.7069V23.7051C18.7069 23.8418 18.7069 23.9557 18.6613 24.0469C18.6158 24.138 18.5474 24.2064 18.4335 24.2975C18.3423 24.3887 18.2056 24.457 18.0461 24.5254C17.8866 24.571 17.7271 24.6165 17.6132 24.6165C17.317 24.6165 17.1803 24.4798 17.1803 24.1836V3.31211Z" fill="#FF0000"/>
<path d="M30.0994 4.06403C29.8487 4.06403 29.5981 4.06403 29.393 4.1096C29.1652 4.15517 28.9373 4.17796 28.7095 4.22353C28.4816 4.2691 28.2765 4.29189 28.0715 4.31467C27.8664 4.31467 27.6613 4.33746 27.4563 4.33746C27.16 4.33746 26.955 4.24632 26.8638 4.06403C26.6588 3.74504 26.5221 3.3349 26.4309 2.87919C26.3853 2.65133 26.4993 2.56019 26.7499 2.60576C27.4563 2.71969 28.3221 2.76526 29.3247 2.76526H35.0894C35.34 2.76526 35.5907 2.76526 35.8641 2.71969C36.1147 2.67412 36.3654 2.65133 36.5932 2.60576C37.0034 2.53741 37.4591 2.49183 37.9148 2.49183C38.0515 2.49183 38.1882 2.49183 38.2794 2.53741C38.3705 2.58298 38.4616 2.65133 38.5528 2.76526C38.6895 2.92476 38.7806 3.10704 38.8718 3.3349C38.9629 3.53997 39.0313 3.74504 39.0768 3.95011C39.1224 4.17796 39.0313 4.2691 38.7579 4.22353C37.9831 4.1096 37.0945 4.06403 36.0692 4.06403H34.1324C33.859 4.92988 33.4944 5.77294 33.0615 6.63879C34.1324 7.55021 35.1577 8.46163 36.1147 9.39583C37.0717 10.3073 38.0059 11.3326 38.9173 12.4491C39.0541 12.6086 39.1224 12.7453 39.1224 12.8364C39.1224 12.9276 39.0541 13.0415 38.9629 13.1327C38.8946 13.2238 38.8034 13.3149 38.6667 13.4061C38.5528 13.4972 38.4616 13.5656 38.4161 13.6339C38.2566 13.7023 38.1199 13.7251 38.0287 13.7251C37.9376 13.7251 37.8236 13.6111 37.6641 13.4516C36.8894 12.4947 36.0692 11.5377 35.1805 10.6262C34.2919 9.71483 33.3577 8.80341 32.3779 7.91478C31.6488 9.12241 30.8285 10.2617 29.9399 11.3098C29.0512 12.3579 28.1398 13.3149 27.2056 14.1124C27.0689 14.2491 26.9322 14.3175 26.841 14.3631C26.7499 14.4086 26.6588 14.4086 26.5676 14.4086C26.4309 14.4086 26.2942 14.3631 26.2031 14.3175C26.1119 14.2719 26.0208 14.2264 25.9068 14.158C25.679 14.0213 25.6562 13.8846 25.8613 13.7251C26.5904 13.0187 27.2968 12.2668 27.9803 11.5149C28.6639 10.7402 29.3019 9.96547 29.8715 9.16798C30.4639 8.37049 30.9652 7.55021 31.4209 6.68436C31.8766 5.8413 32.2412 4.97545 32.4918 4.1096H30.0766L30.0994 4.06403ZM44.7276 17.2796C44.6365 17.5986 44.5909 17.986 44.5681 18.3961C44.5681 18.8062 44.5454 19.3075 44.5454 19.8772V23.9785C44.5454 24.252 44.4542 24.457 44.2719 24.571C44.158 24.6621 44.0213 24.7305 43.8846 24.776C43.7251 24.8216 43.5884 24.8444 43.4289 24.8672C43.1554 24.9127 43.0187 24.776 43.0187 24.457V17.7809H34.0413C33.8134 17.7809 33.6083 17.7809 33.3805 17.8265C33.1526 17.872 32.9248 17.8948 32.7197 17.9404C32.3779 18.0087 31.9906 18.0543 31.6032 18.0543C31.3526 18.0543 31.1703 17.9632 31.0564 17.7809C30.8285 17.4163 30.6918 17.029 30.6007 16.596C30.5551 16.3682 30.669 16.277 30.9196 16.3226C31.5804 16.4365 32.3779 16.4821 33.3349 16.4821H42.3807C42.6542 16.4821 42.9048 16.4138 43.1099 16.2543C43.2694 16.1403 43.4744 16.1175 43.6795 16.2087C43.839 16.2543 43.9985 16.3454 44.158 16.4365C44.3175 16.5277 44.477 16.6416 44.6365 16.7555C44.7732 16.8467 44.796 17.0062 44.7504 17.2568L44.7276 17.2796ZM42.9959 3.31211C42.9959 3.03869 42.9732 2.78805 42.9048 2.58298C42.8592 2.37791 42.7225 2.19562 42.5175 2.05891C42.2668 1.83106 42.0162 1.64877 41.7427 1.48927C41.4921 1.32978 41.2187 1.19306 40.9225 1.03356C40.7858 0.987994 40.7174 0.896852 40.7402 0.760139C40.7858 0.509499 40.8997 0.281644 41.0592 0.0993601C41.1503 0.00821826 41.2643 -0.0145672 41.4238 0.00821826C41.925 0.144931 42.4263 0.35 42.9732 0.577855C43.52 0.80571 44.0213 1.05635 44.4542 1.35256C44.6365 1.48927 44.7276 1.67156 44.7049 1.89941C44.6593 2.30955 44.6365 2.71969 44.5909 3.1754C44.5454 3.63111 44.5226 4.08682 44.5226 4.56531V13.9757C44.5226 14.1124 44.5226 14.2264 44.477 14.3175C44.4314 14.4086 44.3631 14.477 44.2492 14.5681C44.158 14.6593 44.0213 14.7276 43.8618 14.796C43.7023 14.8416 43.5428 14.8871 43.4289 14.8871C43.1327 14.8871 42.9959 14.7504 42.9959 14.4542V3.31211Z" fill="#FF0000"/>
<path d="M62.1121 3.85896C61.8614 3.85896 61.6108 3.85896 61.4057 3.90453C61.1779 3.95011 60.95 3.97289 60.7222 4.01846C60.4943 4.06403 60.2892 4.08682 60.0842 4.1096C59.8791 4.1096 59.674 4.13239 59.469 4.13239C59.1727 4.13239 58.9677 4.04125 58.8765 3.85896C58.6715 3.53997 58.5347 3.12983 58.4436 2.67412C58.398 2.44626 58.512 2.35512 58.7626 2.40069C59.469 2.51462 60.3348 2.56019 61.3374 2.56019H66.7603C67.0109 2.56019 67.2616 2.56019 67.535 2.51462C67.7856 2.46905 68.0363 2.44626 68.2641 2.40069C68.6743 2.33234 69.13 2.28677 69.5857 2.28677C69.7224 2.28677 69.8591 2.28677 69.9503 2.33234C70.0414 2.35512 70.1326 2.44626 70.2237 2.56019C70.3604 2.71969 70.4515 2.90197 70.5427 3.12983C70.6338 3.3349 70.7022 3.53997 70.7478 3.74504C70.7933 3.97289 70.7022 4.06403 70.4288 4.01846C69.6541 3.90453 68.7654 3.85896 67.7401 3.85896H65.9628C65.6894 4.72481 65.3248 5.54509 64.8919 6.31979C65.8945 7.16286 66.8742 8.02871 67.8312 8.91734C68.7882 9.80597 69.7224 10.7402 70.611 11.7427C70.7478 11.9022 70.8161 12.0389 70.7933 12.1301C70.7705 12.2212 70.725 12.3352 70.6566 12.4263C70.5655 12.5174 70.4743 12.6086 70.3832 12.7225C70.2921 12.8364 70.2009 12.882 70.1326 12.9276C69.9958 13.0187 69.8591 13.0415 69.768 13.0187C69.6768 12.9959 69.5401 12.9048 69.4034 12.7225C68.6287 11.8111 67.8084 10.9225 66.9654 10.0794C66.1223 9.23634 65.2109 8.37049 64.2539 7.50464C63.5703 8.64391 62.7728 9.69205 61.907 10.6946C61.0412 11.6972 60.1297 12.5858 59.2183 13.3833C59.0816 13.52 58.9449 13.5884 58.8537 13.6339C58.7626 13.6795 58.6715 13.6795 58.5803 13.6795C58.4436 13.6795 58.3069 13.6339 58.2158 13.5884C58.1246 13.5428 58.0335 13.4972 57.9195 13.4289C57.6917 13.2922 57.6689 13.1554 57.874 12.9959C58.6031 12.2896 59.3095 11.5605 59.9702 10.8313C60.631 10.1022 61.2462 9.35026 61.7931 8.59834C62.3399 7.82364 62.8412 7.04893 63.2741 6.27422C63.7071 5.49952 64.0488 4.67924 64.2995 3.85896H62.1576H62.1121ZM76.0568 15.9125C76.0112 16.391 75.9656 16.915 75.9201 17.4847C75.8745 18.0543 75.7833 18.5556 75.6694 18.9885C75.9656 18.9885 76.1707 19.1024 76.3074 19.3531C76.4441 19.6037 76.4897 19.8999 76.4897 20.2189C76.4897 20.4012 76.3986 20.4924 76.2163 20.4924C75.8061 20.4924 75.3732 20.4696 74.9631 20.4468C74.5529 20.4468 74.12 20.4468 73.6871 20.4468H65.1653V22.8848C65.1653 23.1127 65.2109 23.2494 65.2792 23.3178C65.3704 23.3861 65.5071 23.4317 65.7122 23.4317H73.8922C74.1428 23.4317 74.3934 23.4317 74.6213 23.3861C74.8491 23.3405 75.077 23.3178 75.2821 23.2722C75.4871 23.2266 75.6922 23.2038 75.8745 23.181C76.0568 23.1583 76.2618 23.1583 76.4441 23.1583C76.7403 23.1583 76.9454 23.2494 77.0366 23.4317C77.2416 23.7507 77.4011 24.1153 77.5378 24.571C77.5834 24.7988 77.4923 24.89 77.2416 24.8444C76.8543 24.7988 76.4669 24.7532 76.034 24.7305C75.6239 24.7305 75.1681 24.7077 74.6896 24.7077H66.1907C65.9628 24.7077 65.735 24.7077 65.5071 24.6849C65.2792 24.6849 65.097 24.6393 64.9147 24.571C64.4818 24.4342 64.14 24.2064 63.9121 23.8646C63.7298 23.5456 63.6387 23.2494 63.6387 22.9304V21.381C63.6387 21.1531 63.6387 20.9709 63.5931 20.8114C63.5703 20.6519 63.4792 20.5379 63.3425 20.4468C63.2058 20.3556 63.0463 20.2873 62.8868 20.2417C62.7273 20.1961 62.5678 20.1506 62.4311 20.1278C62.2716 20.0822 62.1804 20.0139 62.1804 19.8999C62.1804 19.6721 62.1804 19.4442 62.226 19.1936C62.2716 19.0569 62.3627 19.0113 62.4994 19.0113C62.864 19.0113 63.2513 19.0113 63.6843 19.0569C64.1172 19.0797 64.5501 19.1252 64.983 19.1708H73.8238C74.0061 19.1708 74.1884 19.1708 74.3707 19.148V16.4593H65.94C65.7122 16.4593 65.5071 16.4593 65.2792 16.5049C65.0514 16.5277 64.8235 16.5733 64.6185 16.596C64.2767 16.6644 63.8893 16.71 63.502 16.71C63.2513 16.71 63.0691 16.6188 62.9551 16.4365C62.7273 16.0492 62.5678 15.6618 62.4994 15.2973C62.4539 15.0694 62.5678 14.9783 62.8184 15.0238C63.4792 15.1378 64.2767 15.1833 65.2337 15.1833H73.7327C74.0061 15.1833 74.2567 15.115 74.4618 14.9555C74.6213 14.8416 74.8036 14.8188 75.0314 14.9099C75.1681 14.9555 75.3276 15.0466 75.4871 15.1378C75.6466 15.2289 75.8061 15.3428 75.9429 15.4112C76.0112 15.4568 76.0568 15.5251 76.0568 15.5935C76.0568 15.6618 76.0568 15.7758 76.0568 15.9125ZM74.439 3.31211C74.439 3.03869 74.4162 2.78805 74.3479 2.58298C74.3023 2.37791 74.1656 2.19562 73.9605 2.05891C73.7099 1.83106 73.4592 1.64877 73.1858 1.48927C72.9124 1.32978 72.6617 1.19306 72.3655 1.03356C72.2288 0.987994 72.1605 0.896852 72.1832 0.760139C72.2288 0.509499 72.3427 0.281644 72.5022 0.0993602C72.5934 0.00821826 72.7073 -0.0145672 72.844 0.00821826C73.3453 0.144931 73.8694 0.35 74.4162 0.577855C74.9631 0.80571 75.4644 1.05635 75.8973 1.35256C76.0796 1.48927 76.1707 1.67156 76.1479 1.89941C76.1023 2.30955 76.0568 2.71969 76.034 3.1754C75.9884 3.63111 75.9656 4.08682 75.9656 4.56531V6.91222H76.8998C77.1505 6.91222 77.4011 6.91222 77.629 6.84386C77.8796 6.79829 78.1075 6.75272 78.3353 6.72993C78.5632 6.68436 78.7682 6.66158 78.9961 6.63879C79.224 6.61601 79.429 6.61601 79.6341 6.61601C79.862 6.61601 80.067 6.70715 80.2265 6.88943C80.3632 7.04893 80.4544 7.254 80.5455 7.45907C80.6367 7.68692 80.705 7.89199 80.7278 8.09706C80.7734 8.32492 80.6822 8.41606 80.4088 8.37049C79.7025 8.25656 78.8594 8.21099 77.9024 8.21099H75.9656V12.6086C75.9656 12.7453 75.9656 12.8592 75.8973 12.9504C75.8517 13.0415 75.7833 13.1099 75.6694 13.201C75.5783 13.2922 75.4416 13.3605 75.2821 13.4289C75.1226 13.4744 74.9859 13.52 74.8491 13.52C74.5529 13.52 74.4162 13.3833 74.4162 13.0871V3.31211H74.439Z" fill="#FF0000"/>
<path d="M94.5138 5.7045C94.5138 5.49943 94.4683 5.31714 94.4227 5.18043C94.3771 5.02093 94.3088 4.92979 94.1949 4.86143C93.9898 4.74751 93.7847 4.67915 93.5341 4.61079C93.3746 4.56522 93.2834 4.49687 93.2834 4.38294C93.2834 4.10951 93.2834 3.85887 93.329 3.6538C93.3746 3.53988 93.4429 3.4943 93.5796 3.4943C93.9442 3.4943 94.286 3.4943 94.6278 3.4943C94.9468 3.4943 95.3341 3.58545 95.767 3.67659H105.61C105.884 3.67659 106.134 3.60823 106.34 3.44873C106.499 3.33481 106.704 3.31202 106.909 3.40316C107.251 3.53988 107.57 3.69937 107.866 3.90444C107.934 3.95001 107.98 4.01837 107.98 4.08673C107.98 4.15508 107.98 4.26901 107.98 4.40572C107.98 4.97536 107.98 5.59057 107.934 6.29692C107.912 6.98048 107.866 7.70962 107.821 8.43875C107.775 9.16789 107.729 9.87424 107.661 10.5806C107.615 11.2869 107.547 11.9249 107.502 12.5401C107.615 12.5401 107.729 12.5629 107.843 12.6313C107.957 12.6996 108.048 12.7908 108.094 12.8819C108.231 13.1326 108.276 13.4288 108.276 13.7933C108.276 13.9528 108.185 14.044 108.003 14.044C107.57 14.044 107.16 14.0212 106.75 13.9984C106.317 13.9984 105.907 13.9984 105.451 13.9984H101.896V19.7403H108.778C109.028 19.7403 109.279 19.7403 109.529 19.672C109.78 19.6264 110.008 19.5808 110.259 19.5581C110.486 19.5125 110.737 19.4897 110.965 19.4669C111.193 19.4669 111.398 19.4441 111.603 19.4441C111.74 19.4441 111.876 19.4441 111.968 19.4897C112.059 19.5125 112.15 19.6036 112.241 19.7176C112.492 20.0593 112.697 20.4695 112.811 20.9252C112.856 21.153 112.765 21.2442 112.492 21.1986C111.717 21.0847 110.828 21.0391 109.78 21.0391H93.2151C92.9644 21.0391 92.7138 21.0391 92.4859 21.1075C92.2581 21.153 92.0302 21.1986 91.7796 21.2214C91.5517 21.267 91.3467 21.2898 91.1416 21.3125C90.9365 21.3125 90.7315 21.3353 90.5264 21.3353C90.2302 21.3353 90.0251 21.2442 89.934 21.0619C89.8428 20.8796 89.7289 20.6745 89.6605 20.4695C89.5922 20.2644 89.5238 20.0593 89.501 19.8543C89.4555 19.6264 89.5694 19.5353 89.82 19.5808C90.5264 19.6948 91.3922 19.7403 92.3948 19.7403H100.37V13.9984H96.1316C96.1316 14.2263 96.0177 14.363 95.8354 14.4085C95.5848 14.4997 95.3341 14.5453 95.1063 14.5225C94.8556 14.5225 94.7189 14.3858 94.7189 14.1351L94.4227 5.7045H94.5138ZM105.155 12.6996H105.724C105.907 12.6996 106.112 12.6996 106.317 12.6541L106.362 4.97536H96.1088L96.2228 12.7224H105.155V12.6996Z" fill="#FF0000"/>
<path d="M117.939 21.0165C117.688 21.0165 117.437 21.0165 117.21 21.0848C116.982 21.1304 116.754 21.176 116.503 21.1988C116.275 21.2443 116.07 21.2671 115.865 21.2899C115.66 21.2899 115.455 21.3127 115.25 21.3127C114.954 21.3127 114.749 21.2216 114.658 21.0393C114.566 20.857 114.453 20.6519 114.384 20.4468C114.316 20.2418 114.247 20.0367 114.225 19.8316C114.179 19.6038 114.293 19.5126 114.544 19.5582C115.25 19.6721 116.116 19.7177 117.118 19.7177H133.547C133.797 19.7177 134.048 19.7177 134.299 19.6494C134.549 19.6038 134.777 19.5582 135.028 19.5354C135.256 19.4899 135.506 19.4671 135.734 19.4443C135.962 19.4215 136.167 19.4215 136.372 19.4215C136.509 19.4215 136.646 19.4215 136.737 19.4671C136.828 19.4899 136.919 19.581 137.01 19.6949C137.261 20.0367 137.466 20.4468 137.58 20.9026C137.625 21.1304 137.534 21.2216 137.261 21.176C136.486 21.0621 135.597 21.0165 134.549 21.0165H117.961H117.939ZM132.066 4.17802C132.066 4.45145 132.02 4.77045 131.997 5.13501C131.975 5.49958 131.929 5.86415 131.906 6.2515C131.861 6.63885 131.838 7.00342 131.792 7.39077C131.747 7.75534 131.701 8.09712 131.633 8.37055H131.656C131.952 8.37055 132.157 8.50726 132.294 8.7579C132.43 9.05411 132.521 9.32754 132.521 9.60097C132.521 9.78325 132.407 9.87439 132.202 9.87439C131.792 9.87439 131.382 9.85161 130.972 9.82882C130.562 9.80603 130.129 9.82882 129.65 9.82882H120.605V13.4745C120.605 13.7479 120.741 13.8846 120.992 13.8846H129.514C129.764 13.8846 130.015 13.8846 130.266 13.8163C130.516 13.7707 130.744 13.7251 130.995 13.7024C131.223 13.6568 131.473 13.634 131.701 13.6112C131.929 13.6112 132.134 13.5884 132.339 13.5884C132.658 13.5884 132.863 13.6796 132.977 13.8618C133.091 14.0441 133.182 14.2264 133.273 14.4315C133.364 14.6366 133.433 14.8416 133.501 15.0695C133.547 15.2973 133.456 15.3885 133.182 15.3429C132.407 15.229 131.519 15.1834 130.471 15.1834H121.06C120.901 15.1834 120.741 15.1834 120.605 15.1606C120.468 15.1606 120.331 15.0923 120.194 15.0239C119.83 14.8188 119.534 14.5682 119.329 14.2948C119.192 14.0897 119.101 13.8391 119.101 13.4973V10.7402C119.101 10.5124 119.101 10.3301 119.055 10.1706C119.01 10.0111 118.941 9.89718 118.805 9.80603C118.668 9.71489 118.508 9.64654 118.349 9.60097C118.189 9.55539 118.03 9.50982 117.893 9.48704C117.734 9.44147 117.642 9.37311 117.642 9.25918C117.642 9.03133 117.642 8.80347 117.688 8.55283C117.734 8.41612 117.825 8.37055 117.961 8.37055C118.326 8.37055 118.713 8.37055 119.146 8.43891C119.579 8.48448 120.012 8.53005 120.445 8.5984H129.81C129.992 8.5984 130.197 8.5984 130.402 8.55283V4.77045H121.425C121.197 4.77045 120.992 4.77045 120.764 4.81602C120.536 4.8388 120.308 4.88437 120.103 4.90716C119.762 4.97552 119.374 5.02109 118.987 5.02109C118.736 5.02109 118.554 4.92994 118.44 4.74766C118.212 4.36031 118.053 3.97295 117.984 3.60839C117.939 3.38053 118.053 3.28939 118.303 3.33496C118.964 3.44889 119.762 3.49446 120.719 3.49446H129.764C130.038 3.49446 130.288 3.4261 130.494 3.2666C130.653 3.15268 130.858 3.12989 131.063 3.22103C131.2 3.2666 131.359 3.35775 131.519 3.44889C131.678 3.54003 131.838 3.65396 131.975 3.7451C132.043 3.79067 132.088 3.85903 132.088 3.92738C132.088 3.99574 132.088 4.10967 132.088 4.24638L132.066 4.17802Z" fill="#FF0000"/>
<path d="M149.838 4.81595C148.79 6.7755 147.582 8.59834 146.193 10.3073C144.803 12.0162 143.208 13.5656 141.43 15.0011C141.339 15.0922 141.225 15.1606 141.111 15.2289C140.997 15.2745 140.884 15.2973 140.792 15.2745C140.656 15.2289 140.519 15.2061 140.405 15.1606C140.291 15.115 140.177 15.0466 140.018 14.9555C139.79 14.8188 139.767 14.6821 139.995 14.4998C141.772 13.0643 143.299 11.5377 144.62 9.96547C145.942 8.37049 147.036 6.7755 147.901 5.13495H143.754C143.527 5.13495 143.322 5.13495 143.094 5.18052C142.866 5.22609 142.661 5.24888 142.433 5.29445C142.091 5.3628 141.704 5.40838 141.294 5.40838C141.043 5.40838 140.861 5.31723 140.747 5.13495C140.519 4.77038 140.382 4.38303 140.291 3.95011C140.246 3.72225 140.359 3.63111 140.61 3.67668C141.271 3.79061 142.068 3.83618 143.025 3.83618H147.355C147.582 3.83618 147.765 3.83618 147.947 3.81339C148.129 3.79061 148.266 3.74504 148.403 3.65389C148.608 3.51718 148.813 3.51718 149.064 3.65389C149.337 3.81339 149.588 4.01846 149.793 4.22353C149.975 4.40581 149.998 4.61088 149.884 4.86152L149.838 4.81595ZM157.107 17.1429C156.947 17.4619 156.765 17.7581 156.606 18.0543C156.446 18.3505 156.264 18.6467 156.081 18.9202C156.947 19.5582 157.79 20.2873 158.633 21.0848C159.476 21.9051 160.228 22.6798 160.866 23.4545C161.003 23.5912 161.049 23.7279 161.026 23.8418C161.003 23.9558 160.958 24.0469 160.912 24.1152C160.844 24.2064 160.752 24.3203 160.616 24.4342C160.502 24.5482 160.388 24.6393 160.297 24.6849C160.206 24.7305 160.114 24.7532 160.001 24.7305C159.887 24.7305 159.773 24.6165 159.613 24.457C159.066 23.7735 158.406 23.0443 157.631 22.2468C156.856 21.4493 156.081 20.7202 155.33 20.0594C154.6 21.1076 153.848 22.0873 153.097 22.9532C152.345 23.819 151.593 24.5482 150.909 25.1406C150.545 25.414 150.248 25.5279 149.998 25.4596C149.907 25.414 149.815 25.3684 149.701 25.3229C149.61 25.2773 149.519 25.2317 149.474 25.1862C149.428 25.1406 149.382 25.0722 149.382 24.9811C149.382 24.89 149.428 24.776 149.565 24.6621C149.793 24.457 149.998 24.252 150.226 24.0013C150.453 23.7735 150.681 23.5228 150.932 23.2722C150.408 22.6798 149.838 22.1101 149.246 21.5405C148.653 20.9709 148.061 20.4468 147.469 19.9911C146.785 20.8569 146.079 21.6772 145.349 22.4063C144.62 23.1355 143.937 23.7735 143.276 24.3431C143.071 24.5026 142.889 24.5937 142.752 24.6165C142.592 24.6165 142.456 24.6165 142.365 24.5937C142.273 24.5482 142.182 24.5026 142.114 24.457C142.046 24.4115 141.977 24.3431 141.932 24.2975C141.886 24.252 141.841 24.1836 141.841 24.0925C141.841 24.0013 141.909 23.9102 142.023 23.7963C142.524 23.3633 143.003 22.8848 143.504 22.3836C144.005 21.8823 144.484 21.3582 144.962 20.8114C145.418 20.2645 145.851 19.7404 146.238 19.1936C146.625 18.6467 146.967 18.0999 147.241 17.5758C147.286 17.4619 147.332 17.348 147.355 17.2568C147.377 17.1657 147.355 17.0518 147.241 16.9834C147.104 16.8695 146.967 16.7783 146.808 16.6872C146.648 16.596 146.512 16.5049 146.352 16.4365C146.215 16.391 146.17 16.277 146.215 16.1403C146.261 15.8669 146.375 15.6391 146.512 15.4796C146.557 15.434 146.694 15.434 146.899 15.4796C147.218 15.5707 147.605 15.7074 148.015 15.8669C148.426 16.0492 148.767 16.2543 149.041 16.4821C149.223 16.6188 149.291 16.8011 149.269 17.029C149.246 17.2568 149.177 17.4391 149.064 17.6214C148.927 17.8492 148.767 18.0771 148.631 18.305C148.494 18.5328 148.334 18.7379 148.198 18.9657C148.836 19.4214 149.474 19.9227 150.089 20.4696C150.727 21.0164 151.319 21.5861 151.912 22.2013C152.572 21.4038 153.188 20.5835 153.78 19.7177C154.373 18.8518 154.828 18.0543 155.193 17.3024C155.33 16.9834 155.352 16.7555 155.216 16.6188C155.079 16.5049 154.942 16.4138 154.783 16.3226C154.623 16.2315 154.486 16.1403 154.327 16.072C154.236 16.0264 154.19 16.0036 154.167 15.958C154.167 15.9125 154.167 15.8441 154.167 15.7758C154.213 15.5023 154.304 15.2745 154.441 15.115C154.486 15.0694 154.623 15.0466 154.828 15.0922C155.17 15.1606 155.557 15.2745 155.967 15.4568C156.378 15.6163 156.742 15.8213 157.038 16.0264C157.221 16.1631 157.312 16.3454 157.289 16.5505C157.289 16.7555 157.221 16.9606 157.13 17.1429H157.107ZM153.416 9.62369H151.729C151.502 9.62369 151.296 9.62369 151.069 9.66926C150.841 9.69204 150.636 9.73762 150.408 9.7604C150.066 9.82876 149.679 9.87433 149.269 9.87433C149.018 9.87433 148.836 9.78319 148.722 9.6009C148.494 9.21355 148.334 8.8262 148.266 8.46163C148.22 8.23377 148.334 8.14263 148.585 8.1882C149.246 8.30213 150.043 8.3477 151 8.3477H153.438V4.4286C153.438 4.15517 153.416 3.90453 153.347 3.69946C153.302 3.4944 153.165 3.31211 152.96 3.1754C152.709 2.94754 152.459 2.76526 152.185 2.60576C151.934 2.44626 151.661 2.30955 151.365 2.15005C151.228 2.10448 151.16 2.01334 151.183 1.87663C151.228 1.62599 151.342 1.39813 151.502 1.21585C151.593 1.12471 151.707 1.10192 151.866 1.12471C152.367 1.26142 152.869 1.46649 153.416 1.69434C153.962 1.9222 154.464 2.17284 154.897 2.46905C155.079 2.60576 155.17 2.78805 155.147 3.0159C155.102 3.42604 155.079 3.83618 155.033 4.29189C154.988 4.7476 154.965 5.20331 154.965 5.6818V13.3833C154.965 13.52 154.965 13.6339 154.919 13.7251C154.874 13.8162 154.805 13.8846 154.692 13.9757C154.6 14.0669 154.464 14.1352 154.304 14.2036C154.145 14.2491 153.985 14.2947 153.871 14.2947C153.575 14.2947 153.438 14.158 153.438 13.8618V9.62369H153.416ZM158.018 3.31211C158.018 3.03869 157.995 2.78805 157.927 2.58298C157.881 2.37791 157.745 2.19562 157.54 2.05891C157.289 1.83106 157.038 1.64877 156.765 1.48927C156.514 1.32978 156.241 1.19306 155.945 1.03356C155.808 0.987994 155.74 0.896852 155.762 0.760139C155.808 0.509499 155.922 0.281644 156.081 0.0993601C156.173 0.00821826 156.287 -0.0145672 156.446 0.00821826C156.947 0.144931 157.449 0.35 157.995 0.577855C158.542 0.80571 159.044 1.05635 159.476 1.35256C159.659 1.48927 159.75 1.67156 159.727 1.89941C159.682 2.30955 159.659 2.71969 159.613 3.1754C159.568 3.63111 159.545 4.08682 159.545 4.56531V13.5656C159.545 13.7023 159.545 13.8162 159.499 13.9074C159.454 13.9985 159.385 14.0669 159.271 14.158C159.18 14.2491 159.044 14.3175 158.884 14.3859C158.725 14.4314 158.565 14.477 158.451 14.477C158.155 14.477 158.018 14.3403 158.018 14.0441V3.31211Z" fill="#FF0000"/>
<path d="M167.428 15.3428C167.428 15.6618 167.564 15.8441 167.861 15.8441C168.635 15.8441 169.478 15.7985 170.367 15.7302C171.256 15.6618 172.144 15.5707 173.033 15.434C173.921 15.3201 174.787 15.1833 175.653 15.0466C176.496 14.9099 177.294 14.7504 178.023 14.6137C178.273 14.5681 178.41 14.6137 178.433 14.7732C178.479 15.0011 178.433 15.2289 178.387 15.4568C178.342 15.6163 178.205 15.7302 178 15.7758C177.408 15.9125 176.724 16.072 175.972 16.2315C175.22 16.391 174.4 16.5505 173.534 16.6872C172.668 16.8239 171.78 16.9378 170.845 17.0518C169.911 17.1657 168.977 17.234 168.066 17.3024C167.929 17.3024 167.769 17.3024 167.61 17.2568C167.45 17.2112 167.314 17.1657 167.223 17.1429C166.995 17.029 166.79 16.915 166.653 16.8011C166.516 16.6872 166.379 16.5733 166.266 16.4593C166.129 16.3226 166.038 16.1631 165.992 16.0036C165.947 15.8441 165.947 15.6618 165.947 15.4796V6.75272C165.947 6.52486 165.947 6.31979 165.924 6.13751C165.901 5.95523 165.833 5.79573 165.673 5.70459C165.536 5.61344 165.377 5.54509 165.195 5.49952C165.012 5.45395 164.853 5.40837 164.716 5.38559C164.534 5.34002 164.443 5.27166 164.443 5.15773C164.397 4.88431 164.443 4.63367 164.534 4.38303C164.579 4.24632 164.671 4.20074 164.853 4.20074C165.172 4.20074 165.536 4.22353 165.947 4.29189C166.357 4.33746 166.744 4.40581 167.154 4.47417H171.939C172.19 4.47417 172.44 4.47417 172.691 4.40581C172.942 4.36024 173.17 4.31467 173.42 4.29189C173.648 4.24632 173.899 4.22353 174.127 4.20074C174.354 4.20074 174.559 4.17796 174.764 4.17796C174.901 4.17796 175.038 4.17796 175.129 4.22353C175.22 4.24632 175.311 4.33746 175.403 4.45139C175.653 4.79317 175.858 5.20331 175.972 5.65901C176.018 5.88687 175.927 5.97801 175.653 5.93244C174.878 5.81851 173.99 5.77294 172.942 5.77294H167.496V15.3428H167.428ZM180.825 3.31211C180.825 3.03869 180.803 2.78805 180.734 2.58298C180.689 2.37791 180.552 2.19562 180.347 2.05891C180.096 1.83106 179.846 1.64877 179.572 1.48927C179.322 1.32978 179.048 1.19306 178.752 1.03356C178.615 0.987993 178.547 0.896852 178.57 0.760139C178.615 0.509499 178.729 0.281644 178.889 0.0993601C178.98 0.00821825 179.094 -0.0145672 179.253 0.00821826C179.755 0.144931 180.256 0.35 180.803 0.577855C181.35 0.80571 181.851 1.05635 182.284 1.35256C182.466 1.48927 182.557 1.67156 182.534 1.89941C182.489 2.30955 182.466 2.71969 182.42 3.1754C182.375 3.63111 182.352 4.08682 182.352 4.56531V9.98825H183.286C183.537 9.98825 183.788 9.98825 184.015 9.9199C184.243 9.87433 184.494 9.82876 184.722 9.80597C184.95 9.7604 185.155 9.73761 185.383 9.71483C185.61 9.71483 185.815 9.69204 186.021 9.69204C186.248 9.69204 186.453 9.78318 186.613 9.96547C186.75 10.125 186.841 10.33 186.932 10.5351C187.023 10.7402 187.091 10.968 187.114 11.1731C187.16 11.401 187.069 11.4921 186.795 11.4465C186.089 11.3326 185.246 11.287 184.289 11.287H182.352V23.7051C182.352 23.8418 182.352 23.9557 182.306 24.0469C182.261 24.138 182.193 24.2064 182.079 24.2975C181.988 24.3887 181.851 24.457 181.691 24.5254C181.532 24.571 181.372 24.6165 181.258 24.6165C180.962 24.6165 180.825 24.4798 180.825 24.1836V3.31211Z" fill="#FF0000"/>
<path d="M191.739 21.0162C191.489 21.0162 191.238 21.0162 191.01 21.0845C190.783 21.1301 190.555 21.1757 190.304 21.1985C190.076 21.244 189.871 21.2668 189.666 21.2896C189.461 21.2896 189.256 21.3124 189.051 21.3124C188.755 21.3124 188.55 21.2212 188.458 21.039C188.367 20.8567 188.253 20.6516 188.185 20.4465C188.117 20.2415 188.048 20.0364 188.025 19.8313C187.98 19.6035 188.094 19.5123 188.344 19.5579C189.051 19.6718 189.917 19.7174 190.919 19.7174H197.573V13.6565C197.573 13.383 197.573 13.1552 197.504 12.9957C197.459 12.8362 197.345 12.6995 197.162 12.6083C196.957 12.4944 196.752 12.4033 196.547 12.3349C196.342 12.2665 196.114 12.1982 195.841 12.107C195.704 12.0615 195.613 11.9931 195.613 11.8792C195.613 11.6513 195.659 11.4463 195.773 11.2184C195.841 11.0817 195.955 11.0133 196.137 11.0589C196.547 11.1045 197.026 11.1728 197.55 11.2868C198.074 11.4007 198.552 11.5602 199.008 11.7653C199.213 11.8336 199.281 12.0159 199.259 12.3121C199.145 13.1096 199.099 13.8615 199.099 14.5451V19.6946H207.325C207.575 19.6946 207.826 19.6946 208.077 19.6263C208.327 19.5807 208.555 19.5351 208.806 19.5123C209.034 19.4668 209.284 19.444 209.512 19.4212C209.74 19.4212 209.945 19.3984 210.15 19.3984C210.287 19.3984 210.424 19.3984 210.515 19.444C210.606 19.4668 210.697 19.5579 210.788 19.6718C211.039 20.0136 211.244 20.4237 211.358 20.8795C211.403 21.1073 211.312 21.1984 211.039 21.1529C210.264 21.039 209.375 20.9934 208.327 20.9934H191.762L191.739 21.0162ZM207.006 4.70177C206.96 5.63597 206.892 6.57018 206.801 7.54995C206.71 8.50694 206.573 9.46393 206.413 10.3754C206.254 11.2868 206.072 12.1754 205.866 12.9957C205.661 13.816 205.456 14.5679 205.228 15.2514C205.183 15.3882 205.137 15.5021 205.069 15.616C205.001 15.7299 204.909 15.7983 204.818 15.7983C204.682 15.8439 204.545 15.8666 204.454 15.8894C204.363 15.8894 204.226 15.935 204.089 15.935C203.93 15.935 203.839 15.935 203.793 15.8211C203.77 15.7299 203.77 15.616 203.793 15.4565C204.021 14.6134 204.203 13.7476 204.385 12.859C204.568 11.9703 204.727 11.0589 204.864 10.1703C205.001 9.25886 205.115 8.37023 205.183 7.50438C205.251 6.63853 205.297 5.79547 205.297 5.02076H195.135C194.907 5.02076 194.679 5.02076 194.451 5.08912C194.223 5.13469 193.995 5.18026 193.767 5.20305C193.403 5.2714 193.015 5.31697 192.583 5.31697C192.446 5.31697 192.332 5.31697 192.241 5.2714C192.15 5.22583 192.081 5.15748 192.013 5.04355C191.785 4.67898 191.648 4.26884 191.557 3.83592C191.512 3.60806 191.626 3.51692 191.876 3.56249C192.537 3.67642 193.334 3.72199 194.291 3.72199H204.317C204.704 3.72199 205.023 3.65363 205.274 3.49414C205.502 3.35742 205.73 3.35742 205.98 3.49414C206.14 3.58528 206.299 3.67642 206.413 3.74478C206.55 3.81313 206.664 3.90427 206.801 4.0182C206.937 4.13213 206.983 4.3372 206.983 4.67898L207.006 4.70177Z" fill="#FF0000"/>
<path d="M215.39 4.36066C215.162 4.56573 215.003 4.74801 214.912 4.9303C214.821 5.11258 214.775 5.29487 214.729 5.49994C214.684 5.72779 214.684 6.00122 214.684 6.27464C214.684 6.54807 214.684 6.77592 214.684 6.98099C214.684 7.16327 214.593 7.25442 214.41 7.25442H213.955C213.727 7.25442 213.59 7.20885 213.499 7.1177C213.408 7.02656 213.34 6.91263 213.317 6.79871L212.884 4.33788C213.453 3.76824 214.137 3.26696 214.98 2.81125C215.8 2.35554 216.871 2.12769 218.17 2.12769C219.036 2.12769 219.811 2.24161 220.494 2.49225C221.178 2.72011 221.725 3.06189 222.18 3.47203C222.636 3.88217 222.978 4.38345 223.206 4.95308C223.433 5.52272 223.547 6.16071 223.547 6.82149C223.547 7.41392 223.456 7.93798 223.297 8.41648C223.137 8.89497 222.909 9.35068 222.636 9.7836C222.363 10.2165 222.021 10.6267 221.611 10.9912C221.2 11.3558 220.768 11.7659 220.289 12.1305C219.811 12.4951 219.423 12.9736 219.081 13.4976C218.762 14.0217 218.535 14.5686 218.443 15.1154C218.398 15.48 218.352 15.9129 218.307 16.3914C218.261 16.8699 218.261 17.3712 218.261 17.8497H217.122C217.076 17.3484 217.031 16.756 217.031 16.0952C217.031 15.4344 217.076 14.842 217.213 14.3179C217.373 13.6799 217.646 13.1103 218.011 12.609C218.375 12.1077 218.831 11.6064 219.378 11.1279C220.061 10.5127 220.654 9.85196 221.132 9.14561C221.611 8.43926 221.838 7.64177 221.838 6.75314C221.838 5.8645 221.542 5.0898 220.927 4.47459C220.312 3.88217 219.4 3.56317 218.17 3.5176C217.6 3.5176 217.076 3.56317 216.598 3.74545C216.119 3.90495 215.709 4.13281 215.413 4.40623L215.39 4.36066ZM219.127 21.9055C219.127 22.3156 218.99 22.6574 218.74 22.9308C218.489 23.2042 218.124 23.3182 217.714 23.3182C217.304 23.3182 216.962 23.1815 216.689 22.9308C216.416 22.6574 216.302 22.3156 216.302 21.9055C216.302 21.4953 216.438 21.1536 216.689 20.8801C216.962 20.6067 217.304 20.4928 217.714 20.4928C218.124 20.4928 218.466 20.6295 218.74 20.8801C219.013 21.1536 219.127 21.4953 219.127 21.9055Z" fill="#FF0000"/>
<path d="M1.25293 43.2782C1.25293 42.4123 1.38964 41.6149 1.68585 40.8629C1.98206 40.111 2.3922 39.4502 2.93905 38.9034C3.48591 38.3565 4.1239 37.9008 4.85304 37.5818C5.58217 37.2628 6.40245 37.1033 7.29108 37.1033C8.17971 37.1033 8.99999 37.2628 9.72913 37.5818C10.4583 37.9008 11.0963 38.3337 11.6431 38.9034C12.19 39.4502 12.6001 40.111 12.8963 40.8629C13.1925 41.6149 13.3292 42.4351 13.3292 43.2782C13.3292 44.1213 13.1925 44.9415 12.8963 45.6934C12.6001 46.4454 12.19 47.1061 11.6431 47.653C11.0963 48.1999 10.4583 48.6556 9.72913 48.9746C8.99999 49.2936 8.17971 49.4531 7.29108 49.4531C6.40245 49.4531 5.58217 49.2936 4.85304 48.9746C4.1239 48.6556 3.48591 48.2226 2.93905 47.653C2.3922 47.1061 1.98206 46.4454 1.68585 45.6934C1.38964 44.9415 1.25293 44.1213 1.25293 43.2782ZM2.77956 43.2782C2.77956 43.9618 2.89348 44.6225 3.12134 45.215C3.34919 45.8074 3.66819 46.3087 4.05554 46.7416C4.4429 47.1745 4.92139 47.5163 5.46824 47.7441C6.01509 47.9948 6.6303 48.1087 7.29108 48.1087C7.95186 48.1087 8.54428 47.9948 9.11392 47.7441C9.66077 47.4935 10.1393 47.1517 10.5266 46.7416C10.914 46.3087 11.233 45.8074 11.4608 45.215C11.6887 44.6225 11.8026 43.9845 11.8026 43.2782C11.8026 42.5718 11.6887 41.9338 11.4608 41.3414C11.233 40.749 10.914 40.2477 10.5266 39.8148C10.1393 39.3819 9.66077 39.0401 9.11392 38.8122C8.56707 38.5616 7.95186 38.4477 7.29108 38.4477C6.6303 38.4477 6.03788 38.5616 5.46824 38.8122C4.92139 39.0629 4.4429 39.4047 4.05554 39.8148C3.66819 40.2477 3.34919 40.749 3.12134 41.3414C2.89348 41.9338 2.77956 42.5718 2.77956 43.2782ZM18.5927 47.0834H17.3167C17.066 47.0834 16.8154 47.1062 16.5876 47.1517C16.3597 47.1973 16.1091 47.2429 15.8812 47.2656C15.6533 47.3112 15.4483 47.334 15.2204 47.3568C14.9926 47.3568 14.7875 47.3796 14.5824 47.3796C14.3546 47.3796 14.1495 47.2884 13.99 47.1061C13.8533 46.9467 13.7622 46.7416 13.671 46.5365C13.5799 46.3087 13.5115 46.1036 13.4887 45.8985C13.4432 45.6707 13.5343 45.5795 13.8077 45.6251C14.5141 45.739 15.3571 45.7846 16.3141 45.7846H18.6155V41.0224H17.3395C17.0888 41.0224 16.8382 41.0224 16.6103 41.0908C16.3825 41.1364 16.1318 41.1819 15.904 41.2047C15.6761 41.2503 15.4711 41.2731 15.2432 41.2959C15.0154 41.2959 14.8103 41.3186 14.6052 41.3186C14.3774 41.3186 14.1723 41.2275 14.0128 41.0452C13.8761 40.8857 13.7849 40.6806 13.6938 40.4756C13.6027 40.2705 13.5343 40.0427 13.5115 39.8376C13.4659 39.6097 13.5571 39.5186 13.8305 39.5642C14.5369 39.6781 15.3799 39.7237 16.3369 39.7237H18.6382V36.078C18.6382 35.8046 18.6155 35.5539 18.5471 35.3488C18.5015 35.1438 18.3648 34.9615 18.1598 34.8248C17.9091 34.5969 17.6585 34.4146 17.385 34.2551C17.1344 34.0956 16.861 33.9589 16.5648 33.7994C16.4281 33.7539 16.3597 33.6627 16.3825 33.526C16.4281 33.2754 16.542 33.0475 16.7015 32.8652C16.7926 32.7741 16.9066 32.7513 17.066 32.7741C17.5673 32.9108 18.0686 33.1159 18.6155 33.3437C19.1623 33.5716 19.6636 33.8222 20.0965 34.1184C20.2788 34.2551 20.3699 34.4374 20.3472 34.6653C20.3016 35.0754 20.2788 35.4856 20.2332 35.9413C20.1877 36.397 20.1649 36.8527 20.1649 37.3312V56.4482C20.1649 56.5849 20.1649 56.6988 20.1193 56.79C20.0737 56.8811 20.0054 56.9495 19.8914 57.0406C19.8003 57.1318 19.6636 57.2001 19.5041 57.2685C19.3446 57.314 19.1851 57.3596 19.0712 57.3596C18.775 57.3596 18.6382 57.2229 18.6382 56.9267V47.0606L18.5927 47.0834Z" fill="#FF0000"/>
<path d="M37.4142 36.4198C36.8218 37.468 36.1154 38.4705 35.3407 39.4275C34.566 40.3845 33.723 41.3187 32.8343 42.1846C31.9457 43.0504 31.0343 43.8707 30.0773 44.6226C29.1203 45.3973 28.1633 46.1037 27.1835 46.7645C27.0696 46.8556 26.9557 46.924 26.8417 46.9695C26.7278 47.0151 26.6139 47.0151 26.5227 46.9695C26.386 46.924 26.2493 46.9012 26.1354 46.8556C26.0215 46.81 25.9075 46.7417 25.7708 46.6505C25.6569 46.5822 25.6113 46.491 25.6113 46.3999C25.6113 46.3087 25.6797 46.2176 25.7708 46.1492C26.7734 45.4657 27.7532 44.7593 28.6874 44.0074C29.6216 43.2555 30.5102 42.458 31.3305 41.6605C32.1508 40.8402 32.9255 40.02 33.609 39.1997C34.2926 38.3794 34.885 37.5363 35.3863 36.7161H29.7583C29.5304 36.7161 29.3254 36.7161 29.0975 36.7616C28.8697 36.8072 28.6646 36.83 28.4367 36.8756C28.0949 36.9439 27.7076 36.9895 27.2975 36.9895C27.0468 36.9895 26.8645 36.8983 26.7506 36.7161C26.5227 36.3515 26.386 35.9641 26.2949 35.5312C26.2493 35.3034 26.3632 35.2122 26.6139 35.2578C27.2747 35.3717 28.0722 35.4173 29.0291 35.4173H34.885C35.1129 35.4173 35.2952 35.4173 35.4774 35.3945C35.6597 35.3945 35.7964 35.3261 35.9331 35.235C36.1382 35.0983 36.3433 35.0983 36.5939 35.235C36.8674 35.3945 37.118 35.5996 37.3231 35.8046C37.5053 35.9869 37.5281 36.192 37.4142 36.4426V36.4198ZM44.2954 48.3366C44.2498 48.8151 44.2043 49.362 44.1587 50C44.1131 50.638 44.022 51.162 43.9081 51.6178H43.9536C44.2498 51.6178 44.4549 51.7317 44.5916 51.9823C44.66 52.119 44.7056 52.2785 44.7511 52.4152C44.7739 52.552 44.7967 52.7115 44.7967 52.8482C44.7967 53.0305 44.7056 53.1216 44.5233 53.1216C44.1131 53.1216 43.6802 53.0988 43.2701 53.076C42.8599 53.0532 42.427 53.076 41.9941 53.076H33.3356V55.6736C33.3356 55.9014 33.3812 56.0381 33.4495 56.1065C33.5407 56.1749 33.6774 56.2204 33.8825 56.2204H42.0624C42.3131 56.2204 42.5637 56.2204 42.7916 56.1749C43.0194 56.1293 43.2473 56.1065 43.4524 56.0609C43.6574 56.0154 43.8625 55.9926 44.0448 55.9698C44.2498 55.9698 44.4321 55.947 44.6144 55.947C44.9106 55.947 45.1157 56.0381 45.2068 56.2204C45.4119 56.5394 45.5714 56.904 45.7081 57.3597C45.7537 57.5876 45.6625 57.6787 45.4119 57.6331C45.0246 57.5876 44.6372 57.542 44.2043 57.5192C43.7941 57.5192 43.3384 57.4964 42.8599 57.4964H34.361C34.1331 57.4964 33.9052 57.4964 33.6774 57.4736C33.4495 57.4736 33.2672 57.4281 33.085 57.3597C32.652 57.223 32.3103 56.9951 32.0824 56.6533C31.9001 56.3344 31.809 56.0381 31.809 55.7191V53.9874C31.809 53.7596 31.809 53.5773 31.7634 53.4178C31.7406 53.2583 31.6495 53.1444 31.5128 53.0532C31.3761 52.9621 31.2166 52.8937 31.0571 52.8482C30.8976 52.8026 30.7381 52.757 30.6013 52.7342C30.4418 52.6887 30.3507 52.6203 30.3507 52.5064C30.3507 52.2785 30.3507 52.0507 30.3963 51.8C30.4418 51.6633 30.533 51.6178 30.6697 51.6178C31.0343 51.6178 31.4216 51.6178 31.8545 51.6633C32.2875 51.6861 32.7204 51.7317 33.1533 51.7773H42.0852C42.2447 51.7773 42.427 51.7773 42.6093 51.7545V48.8607H34.1103C33.8825 48.8607 33.6774 48.8607 33.4495 48.9063C33.2217 48.9291 32.9938 48.9746 32.7888 48.9974C32.447 49.0658 32.0596 49.1114 31.6723 49.1114C31.4216 49.1114 31.2393 49.0202 31.1254 48.8379C30.8976 48.4506 30.7381 48.0632 30.6697 47.6987C30.6241 47.4708 30.7381 47.3797 30.9887 47.4252C31.6495 47.5392 32.447 47.5847 33.404 47.5847H41.9941C42.2675 47.5847 42.5181 47.5164 42.7232 47.3569C42.8827 47.2429 43.0878 47.2202 43.2929 47.3113C43.4296 47.3569 43.5891 47.448 43.7486 47.5392C43.9081 47.6303 44.0676 47.7442 44.2043 47.8354C44.2726 47.8809 44.3182 47.9493 44.3182 48.0177C44.3182 48.086 44.3182 48.1999 44.3182 48.3366H44.2954ZM42.6093 36.1236C42.6093 35.8502 42.5865 35.5996 42.5181 35.3945C42.4726 35.1894 42.3359 35.0071 42.1308 34.8704C41.8802 34.6426 41.6295 34.4603 41.3561 34.3008C41.1054 34.1413 40.832 34.0046 40.5358 33.8451C40.3991 33.7995 40.3307 33.7084 40.3535 33.5717C40.3991 33.321 40.513 33.0932 40.6725 32.9109C40.7637 32.8197 40.8776 32.797 41.0371 32.8197C41.5384 32.9565 42.0397 33.1615 42.5865 33.3894C43.1334 33.6172 43.6346 33.8679 44.0676 34.1641C44.2498 34.3008 44.341 34.4831 44.3182 34.7109C44.2726 35.1211 44.2498 35.5312 44.2043 35.9869C44.1587 36.4426 44.1359 36.8983 44.1359 37.3768V45.0328C44.1359 45.1695 44.1359 45.2834 44.0903 45.3745C44.0448 45.4657 43.9764 45.534 43.8625 45.6252C43.7714 45.7163 43.6346 45.7847 43.4751 45.853C43.3156 45.8986 43.1561 45.9442 43.0422 45.9442C42.746 45.9442 42.6093 45.8075 42.6093 45.5112V36.1236Z" fill="#FF0000"/>
<path d="M60.7932 45.0552C60.5426 45.0552 60.2919 45.078 60.0641 45.1235C59.8362 45.1691 59.6084 45.2147 59.3577 45.2375C59.1299 45.283 58.9248 45.3058 58.7197 45.3286C58.5147 45.3514 58.3096 45.3514 58.1045 45.3514C57.8083 45.3514 57.6032 45.2603 57.5121 45.078C57.3982 44.8957 57.307 44.6906 57.2387 44.4856C57.1703 44.2805 57.102 44.0754 57.0792 43.8703C57.0336 43.6425 57.1475 43.5513 57.3982 43.5969C58.1045 43.7108 58.9704 43.7564 59.9729 43.7564H76.4012C76.6519 43.7564 76.9025 43.7336 77.1532 43.6881C77.4038 43.6425 77.6317 43.5969 77.8823 43.5741C78.1102 43.5286 78.3608 43.5058 78.5659 43.483C78.7709 43.4602 79.0216 43.4602 79.2039 43.4602C79.3406 43.4602 79.4773 43.4602 79.5684 43.5058C79.6596 43.5286 79.7507 43.6197 79.8419 43.7336C80.0925 44.0754 80.2976 44.4856 80.4115 44.9413C80.4571 45.1691 80.3659 45.2603 80.0925 45.2147C79.3178 45.1008 78.4292 45.0552 77.381 45.0552H60.7932ZM75.6038 35.622C75.5582 36.7613 75.4443 37.8778 75.2392 39.017C75.0341 40.1563 74.8063 41.25 74.5328 42.3665C74.4873 42.5032 74.4417 42.6171 74.3733 42.7311C74.305 42.845 74.2138 42.9134 74.1227 42.9134C73.986 42.9589 73.8493 42.9817 73.7581 43.0045C73.667 43.0045 73.5303 43.0501 73.3936 43.0501C73.2341 43.0501 73.1429 43.0501 73.1201 42.9361C73.0974 42.845 73.0974 42.7311 73.1201 42.5716C73.2341 42.0475 73.3252 41.5234 73.3936 41.0449C73.4847 40.5437 73.5531 40.0652 73.6214 39.5867C72.0492 39.7917 70.5226 39.9512 68.996 40.0652C67.4693 40.1791 65.9427 40.2702 64.3933 40.3158C64.1655 40.3158 63.9376 40.3614 63.7097 40.4297C63.4819 40.4753 63.254 40.5209 63.0262 40.5665C62.8211 40.612 62.6388 40.6348 62.4338 40.6804C62.2515 40.7032 62.0464 40.726 61.8413 40.726C61.7046 40.726 61.5907 40.726 61.4996 40.6804C61.4084 40.6576 61.3401 40.5665 61.2717 40.4525C61.0438 40.088 60.9071 39.6778 60.816 39.2449C60.7704 39.017 60.8843 38.9259 61.135 38.9715C61.7958 39.0626 62.5933 39.0854 63.5502 39.0626C64.5072 39.0626 65.3959 39.017 66.2389 38.9715C67.082 38.9259 67.9023 38.9031 68.7225 38.8575C69.5428 38.812 70.3631 38.7436 71.1834 38.6753C72.0037 38.6069 72.8467 38.5158 73.7581 38.4018C73.8493 37.4904 73.8948 36.579 73.9176 35.6904H65.0085C64.7807 35.6904 64.5528 35.7131 64.3249 35.7587C64.0971 35.8043 63.8692 35.8499 63.6414 35.8726C63.2768 35.941 62.8895 35.9866 62.4565 35.9866C62.3198 35.9866 62.2059 35.9866 62.1148 35.941C62.0236 35.8954 61.9553 35.8271 61.8869 35.7131C61.659 35.3486 61.5223 34.9384 61.4312 34.5055C61.3856 34.2777 61.4996 34.1865 61.7502 34.2321C62.411 34.346 63.2085 34.3916 64.1655 34.3916H72.7556C73.0518 34.3916 73.2796 34.3916 73.4391 34.346C73.5759 34.3004 73.7353 34.2549 73.8721 34.1865C74.0999 34.0726 74.3506 34.0726 74.5784 34.1865C74.8974 34.346 75.1708 34.5283 75.3987 34.7334C75.4898 34.8017 75.5354 34.8929 75.581 35.0068C75.6038 35.1207 75.6038 35.3258 75.581 35.6448L75.6038 35.622ZM75.3531 48.8604C75.3075 49.3389 75.262 49.8401 75.1708 50.3414C75.0797 50.8655 75.0113 51.3668 74.9202 51.8908H74.9658C75.262 51.8908 75.467 52.0048 75.6038 52.2554C75.6721 52.3921 75.7177 52.5516 75.7405 52.6883C75.7633 52.825 75.786 52.9845 75.786 53.1212C75.786 53.3035 75.6949 53.3947 75.5126 53.3947C75.1025 53.3947 74.6696 53.3719 74.2594 53.3491C73.8265 53.3491 73.4164 53.3491 72.9834 53.3491H64.2338V55.6732C64.2338 55.9011 64.2794 56.0378 64.3477 56.1061C64.4389 56.1745 64.5756 56.2201 64.7807 56.2201H73.1429C73.3936 56.2201 73.6442 56.2201 73.8721 56.1745C74.0999 56.1289 74.3278 56.1061 74.5328 56.0606C74.7379 56.015 74.943 55.9922 75.1253 55.9694C75.3076 55.9466 75.5126 55.9466 75.6949 55.9466C75.9911 55.9466 76.1962 56.0378 76.2873 56.2201C76.4924 56.5391 76.6519 56.9036 76.7886 57.3593C76.8342 57.5872 76.743 57.6783 76.4924 57.6328C76.105 57.5872 75.7177 57.5416 75.2848 57.5188C74.8746 57.5188 74.4189 57.4961 73.9404 57.4961H65.2364C65.0085 57.4961 64.7807 57.4961 64.5528 57.4733C64.325 57.4733 64.1427 57.4277 63.9604 57.3593C63.5275 57.2226 63.1857 56.9948 62.9578 56.653C62.7755 56.334 62.6844 56.0378 62.6844 55.7188V54.2605C62.6844 54.0327 62.6844 53.8504 62.6388 53.6909C62.616 53.5314 62.5249 53.4175 62.3882 53.3263C62.2515 53.2352 62.092 53.1668 61.9325 53.1212C61.773 53.0757 61.6135 53.0301 61.4768 53.0073C61.3173 52.9618 61.2261 52.8934 61.2261 52.7795C61.2261 52.5516 61.2261 52.3238 61.2717 52.0731C61.3173 51.9364 61.4084 51.8908 61.5451 51.8908C61.9097 51.8908 62.297 51.8908 62.73 51.9364C63.1629 51.9592 63.5958 52.0048 64.0287 52.0503H73.0746C73.2569 52.0503 73.4391 52.0503 73.6214 52.0275V49.3844H64.9857C64.7579 49.3844 64.5528 49.3844 64.3249 49.43C64.0971 49.4756 63.8692 49.4984 63.6642 49.5211C63.3224 49.5895 62.935 49.6351 62.5477 49.6351C62.297 49.6351 62.1148 49.5439 62.0008 49.3616C61.773 48.9743 61.6135 48.5869 61.5451 48.2224C61.4996 47.9945 61.6135 47.9034 61.8641 47.9489C62.5249 48.0629 63.3224 48.1084 64.2794 48.1084H73.0062C73.2796 48.1084 73.5303 48.0401 73.7354 47.8806C73.8949 47.7667 74.0999 47.7439 74.305 47.835C74.4417 47.8806 74.6012 47.9717 74.7607 48.0629C74.9202 48.154 75.0797 48.2679 75.2392 48.3591C75.3075 48.4047 75.3531 48.473 75.3531 48.5414C75.3531 48.6097 75.3531 48.7237 75.3531 48.8604Z" fill="#FF0000"/>
<path d="M94.0571 36.0781C94.0571 36.3287 94.0116 36.6249 93.9888 36.9667C93.966 37.3085 93.9204 37.6503 93.8976 37.992C93.8521 38.3566 93.8293 38.6984 93.7837 39.0402C93.7381 39.382 93.6926 39.701 93.6698 39.9744C93.9204 40.02 94.1255 40.1339 94.2394 40.339C94.3761 40.5896 94.4217 40.8858 94.4217 41.2048C94.4217 41.3871 94.3306 41.4782 94.1483 41.4782C93.7381 41.4782 93.3052 41.4554 92.8951 41.4327C92.4849 41.4327 92.052 41.4327 91.6191 41.4327H85.9683V44.9416C85.9683 45.2606 86.1278 45.3973 86.424 45.3973C87.1987 45.3973 88.0873 45.3518 89.0671 45.2834C90.0469 45.215 91.0495 45.1239 92.0292 44.9872C93.0318 44.8733 93.9888 44.7365 94.923 44.5998C95.8572 44.4631 96.6775 44.3036 97.4066 44.1669C97.5889 44.1213 97.7028 44.1669 97.7256 44.3264C97.7712 44.577 97.7256 44.8277 97.6345 45.0555C97.5889 45.1923 97.475 45.2834 97.3155 45.329C96.5635 45.534 95.7433 45.7163 94.8318 45.8758C93.9204 46.0353 93.009 46.1948 92.052 46.3087C91.095 46.4455 90.1608 46.5366 89.2266 46.6277C88.2924 46.7189 87.4266 46.7872 86.6063 46.81C86.4696 46.81 86.3101 46.81 86.1278 46.81C85.9455 46.81 85.786 46.7417 85.6493 46.6733C85.2164 46.4682 84.8746 46.1948 84.6012 45.853C84.4645 45.648 84.3733 45.3745 84.3733 45.0555V42.3669C84.3733 42.139 84.3733 41.9567 84.3277 41.7972C84.2822 41.6377 84.2138 41.5238 84.0771 41.4327C83.9404 41.3415 83.7809 41.2732 83.6214 41.2276C83.4619 41.182 83.3024 41.1364 83.1657 41.1137C83.0062 41.0681 82.915 40.9997 82.915 40.8858C82.915 40.6579 82.915 40.4301 82.9606 40.1794C83.0062 40.0427 83.0973 39.9972 83.234 39.9972C83.553 39.9972 83.9176 39.9972 84.305 40.0427C84.6923 40.0655 85.1024 40.1111 85.5126 40.1339H91.7102C91.8925 40.1339 92.0976 40.1339 92.3027 40.0883V36.6249H86.743C86.5151 36.6249 86.3101 36.6249 86.0822 36.6705C85.8544 36.6933 85.6265 36.7388 85.4214 36.7616C85.0797 36.83 84.6923 36.8756 84.305 36.8756C84.0543 36.8756 83.872 36.7844 83.7581 36.6021C83.5302 36.2148 83.3708 35.8274 83.3024 35.4629C83.2568 35.235 83.3708 35.1439 83.6214 35.1894C84.2822 35.3034 85.0797 35.3489 86.0366 35.3489H91.6647C91.9381 35.3489 92.1887 35.2806 92.3938 35.1211C92.5533 35.0071 92.7584 34.9844 92.9634 35.0755C93.1001 35.1211 93.2596 35.2122 93.4191 35.3034C93.5786 35.3945 93.7381 35.5084 93.8749 35.5996C93.9432 35.6451 93.9888 35.7135 93.9888 35.7819C93.9888 35.8502 93.9888 35.9641 93.9888 36.1009L94.0571 36.0781ZM101.599 50.3646C101.508 50.6836 101.462 51.0709 101.44 51.481C101.44 51.8912 101.417 52.3925 101.417 52.9621V56.7901C101.417 57.0635 101.326 57.2686 101.143 57.3825C101.029 57.4736 100.893 57.542 100.756 57.5876C100.597 57.6331 100.46 57.6559 100.3 57.6787C100.027 57.7243 99.8902 57.5875 99.8902 57.2686V50.8658H90.9127C90.6849 50.8658 90.4798 50.8658 90.252 50.9114C90.0241 50.957 89.7963 50.9798 89.5912 51.0253C89.2494 51.0937 88.8621 51.1393 88.4747 51.1393C88.2241 51.1393 88.0418 51.0481 87.9278 50.8658C87.7 50.5013 87.5633 50.1139 87.4721 49.681C87.4266 49.4531 87.5405 49.362 87.7911 49.4076C88.4519 49.5215 89.2494 49.5671 90.2064 49.5671H99.2522C99.5257 49.5671 99.7763 49.4987 99.9814 49.3392C100.141 49.2253 100.346 49.2025 100.551 49.2936C100.71 49.3392 100.87 49.4304 101.029 49.5215C101.189 49.6126 101.348 49.7266 101.508 49.8405C101.645 49.9316 101.667 50.0911 101.622 50.3418L101.599 50.3646ZM99.8674 36.1236C99.8674 35.8502 99.8446 35.5996 99.7763 35.3945C99.7307 35.1894 99.594 35.0071 99.3889 34.8704C99.1383 34.6426 98.8877 34.4603 98.6142 34.3008C98.3636 34.1413 98.0902 34.0046 97.794 33.8451C97.6572 33.7995 97.5889 33.7084 97.6117 33.5717C97.6572 33.321 97.7712 33.0932 97.9307 32.9109C98.0218 32.8197 98.1357 32.797 98.2952 32.8197C98.7965 32.9565 99.2978 33.1615 99.8446 33.3894C100.391 33.6172 100.893 33.8679 101.326 34.1641C101.508 34.3008 101.599 34.4831 101.576 34.7109C101.531 35.1211 101.508 35.5312 101.462 35.9869C101.417 36.4426 101.394 36.8983 101.394 37.3768V47.0607C101.394 47.1974 101.394 47.3113 101.348 47.4024C101.303 47.4936 101.235 47.5619 101.121 47.6531C101.029 47.7442 100.893 47.8126 100.733 47.8809C100.574 47.9265 100.414 47.9721 100.3 47.9721C100.004 47.9721 99.8674 47.8354 99.8674 47.5392V36.1464V36.1236Z" fill="#FF0000"/>
<path d="M110.169 40.1794C109.919 40.1794 109.668 40.1794 109.44 40.2478C109.212 40.2934 108.984 40.3389 108.734 40.3617C108.506 40.4073 108.301 40.4301 108.096 40.4529C107.891 40.4757 107.686 40.4757 107.48 40.4757C107.184 40.4757 106.979 40.3845 106.888 40.2022C106.797 40.0199 106.683 39.8149 106.615 39.6098C106.546 39.4047 106.478 39.1997 106.455 38.9946C106.41 38.7668 106.524 38.6756 106.774 38.7212C107.48 38.8351 108.346 38.8807 109.349 38.8807H112.265V37.3313C112.265 37.0578 112.243 36.83 112.174 36.6249C112.129 36.4198 112.015 36.2831 111.855 36.192C111.65 36.0781 111.468 35.9869 111.286 35.8958C111.103 35.8046 110.876 35.7363 110.625 35.6451C110.488 35.5996 110.397 35.5084 110.397 35.4173C110.397 35.1894 110.443 34.9844 110.557 34.7565C110.625 34.6198 110.739 34.5514 110.921 34.597C111.331 34.6426 111.81 34.7337 112.311 34.8704C112.812 35.0071 113.291 35.1666 113.746 35.3717C113.952 35.4629 114.02 35.6451 113.997 35.9186C113.952 36.3287 113.906 36.6933 113.86 37.0578C113.815 37.4224 113.815 37.787 113.815 38.1515V38.8807H115.273C115.524 38.8807 115.774 38.8807 116.025 38.8123C116.276 38.7668 116.504 38.7212 116.754 38.6984C116.982 38.6528 117.233 38.63 117.461 38.6073C117.688 38.6073 117.893 38.5845 118.099 38.5845C118.235 38.5845 118.372 38.5845 118.463 38.63C118.554 38.6528 118.645 38.744 118.737 38.8579C118.987 39.1997 119.192 39.6098 119.306 40.0655C119.352 40.2934 119.261 40.3845 118.987 40.3389C118.212 40.225 117.324 40.1794 116.276 40.1794H110.215H110.169ZM108.096 46.5822C108.096 45.9214 108.21 45.3062 108.46 44.7365C108.711 44.1669 109.03 43.6656 109.463 43.2327C109.896 42.7998 110.42 42.458 111.012 42.2301C111.605 41.9795 112.265 41.8656 112.995 41.8656C113.724 41.8656 114.362 41.9795 114.977 42.2301C115.569 42.4808 116.093 42.8226 116.526 43.2327C116.959 43.6656 117.278 44.1669 117.529 44.7365C117.78 45.3062 117.893 45.9214 117.893 46.5822C117.893 47.2429 117.78 47.8582 117.529 48.4278C117.278 48.9974 116.959 49.4987 116.526 49.9316C116.093 50.3646 115.569 50.7063 114.977 50.9342C114.384 51.1848 113.724 51.2988 112.995 51.2988C112.265 51.2988 111.627 51.1848 111.012 50.9342C110.42 50.6836 109.896 50.3418 109.463 49.9316C109.03 49.4987 108.711 48.9974 108.46 48.4278C108.21 47.8582 108.096 47.2429 108.096 46.5822ZM109.622 46.5822C109.622 47.0834 109.713 47.5392 109.873 47.9493C110.032 48.3594 110.26 48.724 110.557 49.043C110.853 49.362 111.195 49.5898 111.627 49.7721C112.06 49.9544 112.493 50.0228 112.995 50.0228C113.496 50.0228 113.929 49.9316 114.362 49.7721C114.795 49.6126 115.136 49.362 115.433 49.043C115.729 48.724 115.957 48.3594 116.116 47.9493C116.276 47.5392 116.367 47.0834 116.367 46.5822C116.367 46.0809 116.276 45.6252 116.116 45.215C115.957 44.8049 115.729 44.4403 115.433 44.1213C115.136 43.8023 114.795 43.5745 114.362 43.3922C113.929 43.2099 113.496 43.1416 112.995 43.1416C112.493 43.1416 112.06 43.2327 111.627 43.3922C111.195 43.5517 110.853 43.8023 110.557 44.1213C110.26 44.4403 110.032 44.8049 109.873 45.215C109.713 45.6252 109.622 46.0809 109.622 46.5822ZM120.582 37.5135C120.582 37.2401 120.559 36.9895 120.491 36.7844C120.445 36.5793 120.309 36.3971 120.104 36.2603C119.853 36.0325 119.602 35.8502 119.329 35.6907C119.078 35.5312 118.805 35.3945 118.509 35.235C118.372 35.1894 118.304 35.0983 118.326 34.9616C118.372 34.7109 118.486 34.4831 118.645 34.3008C118.737 34.2097 118.85 34.1869 119.01 34.2097C119.511 34.3464 120.012 34.5514 120.559 34.7793C121.106 35.0071 121.607 35.2578 122.04 35.554C122.223 35.6907 122.314 35.873 122.291 36.1009C122.245 36.511 122.223 36.9211 122.177 37.3768C122.132 37.8325 122.109 38.2883 122.109 38.7668V43.6428H125.618V36.1236C125.618 35.8502 125.595 35.5996 125.527 35.3945C125.481 35.1894 125.344 35.0071 125.139 34.8704C124.889 34.6426 124.638 34.4603 124.365 34.3008C124.091 34.1413 123.84 34.0046 123.544 33.8451C123.408 33.7995 123.339 33.7084 123.362 33.5717C123.408 33.321 123.521 33.0932 123.681 32.9109C123.772 32.8197 123.886 32.797 124.046 32.8197C124.547 32.9565 125.048 33.1615 125.595 33.3894C126.142 33.6172 126.643 33.8679 127.076 34.1641C127.258 34.3008 127.349 34.4831 127.327 34.7109C127.281 35.1211 127.258 35.5312 127.213 35.9869C127.167 36.4426 127.144 36.8983 127.144 37.3768V56.4938C127.144 56.6306 127.144 56.7445 127.099 56.8356C127.053 56.9268 126.985 56.9951 126.871 57.0863C126.78 57.1774 126.643 57.2458 126.484 57.3141C126.324 57.3597 126.165 57.4053 126.051 57.4053C125.754 57.4053 125.618 57.2686 125.618 56.9723V44.9416H122.109V54.6027C122.109 54.7394 122.109 54.8533 122.063 54.9444C122.018 55.0356 121.949 55.1039 121.835 55.1951C121.744 55.2862 121.607 55.3546 121.448 55.4229C121.288 55.4685 121.129 55.5141 121.015 55.5141C120.719 55.5141 120.582 55.3774 120.582 55.0811V37.5591V37.5135Z" fill="#FF0000"/>
<path d="M152.07 45.5796C152.07 45.7163 152.07 45.8302 152.025 45.9214C151.979 46.0125 151.911 46.0809 151.797 46.172C151.706 46.2632 151.569 46.3315 151.41 46.3999C151.25 46.4455 151.091 46.491 150.977 46.491C150.68 46.491 150.544 46.3543 150.544 46.0581V45.8758H147.513V50.1595C148.789 50.0456 150.042 49.9316 151.296 49.7721C152.526 49.6354 153.642 49.4759 154.622 49.3164C154.85 49.2709 154.987 49.362 154.987 49.5898C154.987 49.681 154.987 49.7949 154.941 49.9316C154.918 50.0683 154.873 50.1595 154.85 50.2278C154.782 50.3418 154.645 50.4101 154.44 50.4557C153.574 50.6608 152.64 50.8431 151.592 50.9798C150.544 51.1393 149.496 51.276 148.447 51.3899C147.376 51.5038 146.351 51.6178 145.326 51.6861C144.3 51.7773 143.389 51.8228 142.569 51.8456C142.341 51.8456 142.136 51.914 141.931 51.9595C141.726 52.0279 141.498 52.0735 141.293 52.1418C140.883 52.2557 140.495 52.2785 140.176 52.2557C139.948 52.2557 139.766 52.1874 139.629 52.0735C139.47 51.8912 139.31 51.6861 139.196 51.4583C139.06 51.2304 138.969 51.0026 138.878 50.7975C138.832 50.6152 138.923 50.5241 139.174 50.5241C139.493 50.5696 139.857 50.5924 140.245 50.5924C140.632 50.5924 141.065 50.5924 141.521 50.5468C142.181 50.5468 142.888 50.5013 143.64 50.4557C144.392 50.4101 145.189 50.3646 146.009 50.319V45.8986H143.047C143.047 46.0353 143.047 46.1492 143.002 46.2404C142.956 46.3315 142.888 46.3999 142.774 46.491C142.683 46.5822 142.546 46.6505 142.386 46.7189C142.227 46.7645 142.067 46.81 141.954 46.81C141.657 46.81 141.521 46.6733 141.521 46.3771V38.63C141.521 38.3566 141.521 38.1515 141.475 38.0148C141.429 37.8781 141.338 37.7642 141.202 37.673C140.997 37.5363 140.791 37.4452 140.564 37.354C140.336 37.2629 140.108 37.1946 139.857 37.1262C139.721 37.0806 139.629 37.0123 139.629 36.8983C139.629 36.6705 139.675 36.4654 139.789 36.2376C139.857 36.1008 139.971 36.0325 140.153 36.0781C140.564 36.1236 141.042 36.192 141.543 36.3059C142.045 36.4198 142.546 36.5793 143.002 36.7616C143.207 36.83 143.275 37.0123 143.252 37.3085C143.207 37.7414 143.161 38.1515 143.138 38.5161C143.116 38.8807 143.093 39.3136 143.07 39.7693H150.589V37.6047C150.589 37.1034 150.475 36.7616 150.27 36.6021C150.065 36.4654 149.86 36.3287 149.632 36.2376C149.404 36.1464 149.177 36.0325 148.926 35.9414C148.789 35.8958 148.698 35.8046 148.698 35.7135C148.698 35.4856 148.744 35.2806 148.858 35.0527C148.926 34.916 149.04 34.8477 149.222 34.8932C149.632 34.9388 150.111 35.0527 150.612 35.2122C151.113 35.3717 151.615 35.554 152.07 35.7363C152.275 35.8046 152.344 35.9869 152.321 36.2831C152.275 36.8072 152.23 37.3085 152.184 37.7642C152.139 38.2199 152.139 38.7895 152.139 39.4275V45.6024L152.07 45.5796ZM143.024 44.577H150.544V41.0225H143.024V44.577ZM156.194 36.1236C156.194 35.8502 156.172 35.5996 156.103 35.3945C156.058 35.1894 155.921 35.0071 155.716 34.8704C155.465 34.6426 155.215 34.4603 154.941 34.3008C154.691 34.1413 154.417 34.0046 154.121 33.8451C153.984 33.7995 153.916 33.7084 153.939 33.5717C153.984 33.321 154.098 33.0932 154.258 32.9109C154.349 32.8197 154.463 32.797 154.622 32.8197C155.124 32.9565 155.625 33.1615 156.172 33.3894C156.719 33.6172 157.22 33.8679 157.653 34.1641C157.835 34.3008 157.926 34.4831 157.903 34.7109C157.858 35.1211 157.835 35.5312 157.789 35.9869C157.744 36.4426 157.721 36.8983 157.721 37.3768V43.8479H158.655C158.906 43.8479 159.157 43.8479 159.384 43.7796C159.612 43.734 159.863 43.6884 160.091 43.6656C160.319 43.6201 160.524 43.5973 160.752 43.5745C160.979 43.5517 161.184 43.5517 161.39 43.5517C161.617 43.5517 161.822 43.6428 161.982 43.8251C162.119 43.9846 162.21 44.1897 162.301 44.3948C162.392 44.6226 162.46 44.8277 162.483 45.0328C162.529 45.2606 162.438 45.3517 162.164 45.3062C161.458 45.1923 160.615 45.1467 159.658 45.1467H157.721V56.4938C157.721 56.6306 157.721 56.7445 157.676 56.8356C157.63 56.9268 157.562 56.9951 157.448 57.0863C157.357 57.1774 157.22 57.2458 157.06 57.3141C156.901 57.3597 156.741 57.4053 156.627 57.4053C156.331 57.4053 156.194 57.2686 156.194 56.9723V36.1464V36.1236Z" fill="#FF0000"/>
<path d="M168.042 54.7391C168.042 55.1492 167.905 55.491 167.655 55.7644C167.404 56.0378 167.04 56.1518 166.629 56.1518C166.219 56.1518 165.878 56.0151 165.604 55.7644C165.331 55.491 165.217 55.1492 165.217 54.7391C165.217 54.3289 165.354 53.9872 165.604 53.7137C165.855 53.4403 166.219 53.3264 166.629 53.3264C167.04 53.3264 167.381 53.4631 167.655 53.7137C167.928 53.9872 168.042 54.3289 168.042 54.7391ZM167.108 35.3486C167.267 35.3486 167.404 35.417 167.495 35.5537C167.586 35.6904 167.655 35.8499 167.655 36.0094C167.655 36.7385 167.655 37.4677 167.632 38.174C167.632 38.9032 167.586 39.6551 167.541 40.4754L167.154 50.6149H166.06L165.672 40.4754C165.627 39.6551 165.604 38.8804 165.581 38.174C165.581 37.4449 165.559 36.7385 165.559 36.0094C165.559 35.8499 165.604 35.6904 165.718 35.5537C165.832 35.417 165.946 35.3486 166.105 35.3486H167.085H167.108Z" fill="#FF0000"/>
</svg>
